<svg width="102" height="102" viewBox="0 0 102 102" fill="none" xmlns="http://www.w3.org/2000/svg">
<path fill-rule="evenodd" clip-rule="evenodd" d="M24.303 102.003C23.2726 101.53 22.8503 100.696 22.6777 99.594C22.3138 97.2702 21.8517 94.9623 21.4082 92.6518C20.9647 90.3386 21.4507 89.6375 23.7426 89.2365C26.0611 88.8328 28.369 88.3787 30.6822 87.9537C31.0407 87.8873 31.4045 87.821 31.7657 87.8156C32.8201 87.7944 33.6194 88.4769 33.7788 89.4994C33.9249 90.4316 33.3698 91.3823 32.4004 91.6399C31.2956 91.9321 30.159 92.1127 28.9639 92.5721C30.4458 93.2493 31.8879 94.0354 33.4149 94.5905C51.9681 101.344 68.6384 98.1492 83.4044 85.0377C84.4083 84.1454 85.213 83.917 86.0814 84.3977C86.9021 84.8518 87.2686 85.5848 87.0588 86.4851C86.9525 86.9366 86.6684 87.412 86.3311 87.7333C78.5231 95.1934 69.2704 99.74 58.6049 101.405C57.0725 101.644 55.5269 101.806 53.9865 102.003C51.9283 102.003 49.8701 102.003 47.8119 102.003C47.5569 101.944 47.3073 101.851 47.0496 101.833C40.7342 101.365 34.7375 99.7161 29.0197 97.0152C28.0689 96.5664 27.1394 96.0751 26.016 95.5094C26.2284 96.7151 26.3958 97.7456 26.5949 98.7707C26.9455 100.585 26.7596 101.063 25.3016 102C24.967 102.003 24.635 102.003 24.303 102.003Z" fill="#55ABFF"/>
<path fill-rule="evenodd" clip-rule="evenodd" d="M0 24.3109C0.470071 23.2752 1.30664 22.8635 2.40878 22.6883C4.76445 22.3165 7.10417 21.8384 9.44921 21.3922C11.6216 20.9779 12.3706 21.4985 12.7556 23.655C13.1726 26.0053 13.6214 28.3477 14.0517 30.6954C14.1181 31.0539 14.1818 31.4178 14.1871 31.779C14.203 32.8333 13.5205 33.6274 12.498 33.7894C11.5685 33.9354 10.6178 33.3751 10.3628 32.4031C10.0733 31.2956 9.89804 30.1589 9.61918 28.7779C9.33767 29.2799 9.15973 29.572 9.00304 29.8748C0.18059 47.0894 3.24535 68.8003 16.487 82.9025C16.7366 83.168 16.9969 83.4256 17.2333 83.7045C18.0672 84.6765 18.0406 85.8716 17.1828 86.6365C16.3675 87.3641 15.183 87.2924 14.3305 86.4187C11.7491 83.7709 9.49436 80.8681 7.57159 77.7104C3.29049 70.6806 0.786108 63.0718 0.167315 54.8522C0.15138 54.6292 0.0584254 54.414 0.00265431 54.1936C0.00265431 52.069 0.00265431 49.9444 0.00265431 47.8198C0.0637369 47.5303 0.15669 47.2461 0.177936 46.954C0.563022 41.8974 1.68376 37.0082 3.58263 32.3101C4.42185 30.2333 5.40714 28.2149 6.38446 26.0398C5.25841 26.2417 4.19345 26.4223 3.13646 26.6268C1.44208 26.9508 0.913582 26.7357 0.00265431 25.3095C-1.4588e-06 24.9749 0 24.6429 0 24.3109Z" fill="#55ABFF"/>
<path fill-rule="evenodd" clip-rule="evenodd" d="M77.6917 0.00793457C78.7248 0.480661 79.1418 1.31457 79.3171 2.41672C79.6915 4.77238 80.1643 7.11211 80.6104 9.45715C81.0247 11.6269 80.5015 12.3785 78.3451 12.7609C75.9947 13.1779 73.6523 13.6267 71.3046 14.0569C70.9461 14.1233 70.5823 14.1897 70.2211 14.195C69.1694 14.211 68.37 13.5231 68.2133 12.5033C68.0699 11.5685 68.6276 10.623 69.5996 10.3707C70.7071 10.0813 71.8464 9.90597 73.1584 9.64571C72.8051 9.41731 72.6139 9.26594 72.3988 9.15971C63.9375 4.91048 55.0142 3.21876 45.5888 4.34215C35.2048 5.57973 26.2177 9.81302 18.5983 16.965C17.6183 17.8839 16.7871 18.0937 15.9239 17.621C15.1033 17.1695 14.7289 16.4418 14.9333 15.5415C15.0369 15.09 15.3184 14.612 15.6584 14.2906C23.4663 6.82794 32.719 2.27862 43.3846 0.610795C44.9196 0.371776 46.4679 0.209774 48.0083 0.0132472C50.0665 0.0132472 52.1247 0.0132472 54.1829 0.0132472C54.4379 0.0716741 54.6875 0.164626 54.9451 0.183216C60.3416 0.581581 65.539 1.82979 70.5238 3.92254C72.3165 4.67412 74.0587 5.54786 75.9708 6.43489C75.761 5.27166 75.5804 4.2067 75.3759 3.14705C75.0519 1.45002 75.2697 0.921518 76.6932 0.0159015C77.0278 0.00793425 77.3598 0.00793457 77.6917 0.00793457Z" fill="#55ABFF"/>
<path fill-rule="evenodd" clip-rule="evenodd" d="M101.995 77.6998C101.519 78.7302 100.685 79.1498 99.5859 79.3278C97.1983 79.7102 94.8268 80.1962 92.4472 80.6397C90.3651 81.0275 89.6161 80.483 89.239 78.3584C88.8221 76.0081 88.3732 73.6657 87.9457 71.318C87.8793 70.9595 87.8155 70.5956 87.8076 70.2344C87.789 69.1774 88.4688 68.3834 89.494 68.224C90.4235 68.0779 91.3743 68.6357 91.6292 69.6077C91.9213 70.7151 92.0966 71.8518 92.3649 73.1823C92.6065 72.784 92.7632 72.5556 92.8907 72.3112C101.511 55.7207 99.0202 34.6498 86.7612 20.5211C86.153 19.82 85.5183 19.1401 84.8968 18.4496C83.9301 17.3767 83.8983 16.1896 84.8145 15.3743C85.6776 14.6041 86.8541 14.7369 87.8049 15.7355C94.1761 22.412 98.4598 30.2412 100.563 39.2177C101.166 41.7885 101.408 44.4443 101.819 47.0602C101.87 47.3816 101.936 47.6976 101.995 48.0163C101.995 50.0745 101.995 52.1327 101.995 54.1909C101.934 54.4778 101.838 54.7646 101.817 55.0541C101.426 60.2116 100.255 65.1911 98.3058 69.9795C97.4985 71.9633 96.545 73.8861 95.5943 75.9735C96.7389 75.7664 97.8012 75.5858 98.8609 75.384C100.553 75.06 101.081 75.2777 101.995 76.7012C101.995 77.0358 101.995 77.3678 101.995 77.6998Z" fill="#55ABFF"/>
<path fill-rule="evenodd" clip-rule="evenodd" d="M13.0876 50.9322C13.0876 49.2724 13.0849 47.6125 13.0876 45.9527C13.0903 43.6554 13.6506 43.1057 15.9877 43.1057C16.8508 43.1057 17.7139 43.0818 18.5771 43.1137C19.1242 43.1349 19.3446 42.941 19.5544 42.4046C20.553 39.8497 21.6153 37.3188 22.7121 34.8038C22.9219 34.3231 22.9192 34.0522 22.5421 33.6963C21.7215 32.9235 20.9248 32.1214 20.1466 31.3035C19.1985 30.3076 19.1852 29.2054 20.1519 28.2281C22.8369 25.5139 25.5352 22.813 28.252 20.1307C29.1922 19.2011 30.2917 19.2091 31.2557 20.1147C32.079 20.8876 32.8784 21.6843 33.6485 22.5102C34.0283 22.9192 34.3125 22.9325 34.8357 22.7041C37.348 21.6046 39.8869 20.5582 42.4365 19.5544C42.9304 19.3605 43.1137 19.1533 43.1004 18.6434C43.0739 17.5493 43.0739 16.4524 43.0978 15.3583C43.1349 13.8338 43.8547 13.1088 45.3897 13.1009C49.1423 13.0823 52.8922 13.0823 56.6448 13.1009C58.1613 13.1088 58.865 13.8498 58.8996 15.3981C58.9235 16.4604 58.9261 17.5227 58.8969 18.585C58.881 19.1268 59.0563 19.3552 59.6007 19.5676C62.1555 20.5662 64.6865 21.6285 67.1988 22.7254C67.6795 22.9352 67.9504 22.9352 68.3063 22.5554C69.0791 21.7348 69.8812 20.938 70.6991 20.1599C71.6924 19.2118 72.7972 19.1958 73.7745 20.1625C76.4887 22.8449 79.1896 25.5458 81.8719 28.2626C82.8041 29.2054 82.7935 30.3022 81.8905 31.2663C81.1204 32.0896 80.321 32.8916 79.495 33.6591C79.0887 34.0389 79.0701 34.3231 79.2985 34.8463C80.398 37.3586 81.4444 39.8975 82.4509 42.4471C82.6448 42.9384 82.8466 43.1296 83.3592 43.1163C84.4533 43.0871 85.5502 43.0898 86.6444 43.1137C88.1688 43.1482 88.8938 43.8706 88.8991 45.4029C88.915 49.121 88.915 52.8391 88.8991 56.5571C88.8938 58.1958 88.1741 58.8889 86.5036 58.9102C85.4758 58.9234 84.4454 58.9367 83.4176 58.9048C82.8732 58.8889 82.6474 59.0695 82.4376 59.6113C81.4391 62.1661 80.3767 64.6971 79.2799 67.2121C79.0701 67.6954 79.0754 67.9663 79.4525 68.3195C80.2732 69.0924 81.0726 69.8918 81.848 70.7124C82.7962 71.7136 82.8094 72.8104 81.8427 73.7904C79.1843 76.4834 76.5046 79.1577 73.817 81.8188C72.7892 82.836 71.703 82.828 70.6673 81.8321C69.8758 81.0752 69.0924 80.3077 68.3488 79.5056C67.969 79.094 67.6822 79.086 67.159 79.3118C64.6466 80.4086 62.1104 81.4576 59.5582 82.4615C59.0642 82.6554 58.881 82.8652 58.8943 83.3751C58.9208 84.4693 58.9235 85.5661 58.8943 86.6603C58.8544 88.1847 58.132 88.9097 56.5997 88.9177C52.8816 88.9362 49.1635 88.9336 45.4455 88.9177C43.8095 88.9097 43.1163 88.1847 43.0924 86.5168C43.0792 85.4864 43.0659 84.4586 43.0978 83.4308C43.1137 82.8838 42.9304 82.6633 42.3913 82.4509C39.8365 81.4523 37.3055 80.39 34.7905 79.2932C34.3072 79.0834 34.0363 79.0913 33.6831 79.4684C32.9102 80.2891 32.1109 81.0885 31.2902 81.8639C30.289 82.812 29.1922 82.82 28.2148 81.8533C25.5007 79.1683 22.7997 76.4701 20.1174 73.7532C19.1879 72.8131 19.1985 71.7109 20.1068 70.7522C20.8823 69.9316 21.6764 69.1269 22.5023 68.362C22.9166 67.9796 22.9166 67.6928 22.6909 67.1722C21.594 64.6572 20.5476 62.121 19.5411 59.5688C19.3472 59.0748 19.1401 58.8916 18.6302 58.9022C17.536 58.9314 16.4392 58.9287 15.345 58.9048C13.8179 58.8677 13.1088 58.148 13.0929 56.6129C13.0743 54.7167 13.0876 52.8231 13.0876 50.9322ZM84.8756 47.246C84.7694 47.185 84.7136 47.1239 84.6552 47.1239C83.561 47.1079 82.4642 47.1079 81.37 47.0867C79.9651 47.0601 79.3569 46.6007 79.0621 45.2516C78.2813 41.6477 76.9057 38.3014 74.8899 35.2101C74.1808 34.1212 74.2818 33.2581 75.1927 32.3472C76.0346 31.5053 76.9163 30.7086 77.6732 29.9915C75.7292 28.0661 73.9046 26.2575 72.0562 24.4277C72.1412 24.3799 72.1067 24.3905 72.0828 24.4118C71.3046 25.1819 70.5345 25.9601 69.7484 26.7249C68.7259 27.7235 67.8946 27.8404 66.7261 27.0755C63.672 25.0704 60.3496 23.7186 56.7776 22.9458C55.4152 22.651 54.9425 22.0455 54.9239 20.6592C54.908 19.5066 54.9212 18.3513 54.9212 17.1376C52.2681 17.1376 49.7319 17.1376 47.0734 17.1376C47.0734 18.3752 47.092 19.5623 47.0681 20.7495C47.0442 22.0216 46.5529 22.6616 45.3233 22.9245C41.6822 23.7 38.3068 25.0916 35.1862 27.1206C34.1 27.8244 33.2396 27.7182 32.326 26.7993C31.4894 25.9574 30.7006 25.0704 29.9358 24.2498C27.9865 26.2017 26.1858 28.005 24.2578 29.9384C25.0518 30.6847 25.9123 31.4575 26.7303 32.2728C27.7288 33.2687 27.8324 34.1159 27.0569 35.2977C25.0731 38.3306 23.7319 41.6211 22.9538 45.1533C22.6298 46.6299 22.0535 47.0734 20.5291 47.0893C19.4083 47.1026 18.2902 47.092 17.143 47.092C17.143 49.7557 17.143 52.292 17.143 54.9292C18.3009 54.9292 19.3897 54.9212 20.4786 54.9318C22.0667 54.9451 22.6245 55.3727 22.9644 56.9157C23.7346 60.416 25.0704 63.6746 27.0277 66.6836C27.8351 67.9265 27.7368 68.7391 26.6931 69.7855C25.8831 70.5955 25.0439 71.3763 24.3056 72.0828C26.239 74.0188 28.0396 75.8221 29.9305 77.7156C30.6555 76.9534 31.4204 76.1248 32.2144 75.3254C33.2608 74.2738 34.0708 74.1675 35.3111 74.9722C38.3227 76.9216 41.576 78.2654 45.0763 79.0382C46.6326 79.3808 47.0575 79.9332 47.0708 81.516C47.0788 82.6315 47.0734 83.7469 47.0734 84.8596C49.7637 84.8596 52.2973 84.8596 54.9186 84.8596C54.9186 83.6221 54.9026 82.4668 54.9212 81.3115C54.9425 79.981 55.4232 79.3622 56.7218 79.0834C60.3257 78.3079 63.6746 76.9375 66.7659 74.9191C67.8867 74.1888 68.7471 74.2977 69.7085 75.2537C70.5318 76.0717 71.3206 76.9242 72.0509 77.6864C73.9551 75.7875 75.777 73.9737 77.6838 72.0748C76.9243 71.3471 76.0983 70.5796 75.2989 69.7829C74.2526 68.7418 74.1516 67.9265 74.959 66.6836C76.8924 63.7038 78.2335 60.4824 78.9958 57.0113C79.3649 55.3382 79.8907 54.9398 81.609 54.9292C82.6873 54.9239 83.7682 54.9292 84.873 54.9292C84.8756 52.2442 84.8756 49.7318 84.8756 47.246Z" fill="#87C4FF"/>
<path fill-rule="evenodd" clip-rule="evenodd" d="M50.9374 74.7625C37.8179 74.7254 27.2267 64.1076 27.2373 50.9934C27.2453 37.8315 37.8949 27.2164 51.0569 27.2482C64.179 27.2801 74.7622 37.8952 74.7569 51.012C74.7516 64.1687 64.0887 74.7997 50.9374 74.7625ZM50.9852 31.2292C40.0593 31.2372 31.2475 40.0384 31.221 50.9669C31.1944 61.9219 40.0487 70.7869 51.0091 70.7816C61.9322 70.7736 70.7494 61.9697 70.7733 51.0439C70.7972 40.0836 61.9482 31.2239 50.9852 31.2292Z" fill="#87C4FF"/>
<path fill-rule="evenodd" clip-rule="evenodd" d="M49.0149 63.1276C47.4268 62.4212 46.0352 61.9007 44.7418 61.1995C43.5945 60.5781 43.3449 59.391 43.9637 58.4004C44.5692 57.431 45.7563 57.1442 46.8345 57.8666C48.2554 58.8226 49.7984 58.9714 51.4104 58.7908C53.2376 58.5836 54.6558 56.6741 54.3344 54.9319C54.1352 53.8484 53.4474 53.2004 52.4515 52.802C50.9722 52.2124 49.485 51.6414 48.0482 50.9669C45.5916 49.8143 44.038 47.9765 44.2584 45.1189C44.4762 42.2772 45.9528 40.296 48.6936 39.3346C48.7865 39.3028 48.8662 39.2417 48.9512 39.1965C49.1743 36.7426 49.6735 35.991 51.0545 36.0202C52.3638 36.0494 52.8472 36.7957 53.0437 39.0186C54.0131 39.5205 54.993 39.9295 55.8615 40.5032C57.0167 41.2654 57.2425 42.4472 56.5546 43.4192C55.8695 44.3885 54.7222 44.532 53.5775 43.7352C52.5896 43.05 51.514 42.8641 50.3561 43.0394C49.2221 43.2094 48.4811 43.9264 48.2554 45.01C48.027 46.1174 48.5634 46.8026 49.5062 47.2196C51.0492 47.9021 52.6108 48.5475 54.1644 49.2114C56.8786 50.372 58.5385 52.8843 58.334 55.726C58.1269 58.6341 56.7034 60.8463 54.0582 62.0866C53.1685 62.5035 52.9003 62.9417 52.972 63.85C53.049 64.8486 52.5604 65.5948 51.591 65.9109C50.3561 66.3172 49.1424 65.4753 49.0202 64.1554C48.9804 63.7331 49.0149 63.3029 49.0149 63.1276Z" fill="#55ABFF"/>
</svg>
