<svg width="102" height="102" viewBox="0 0 102 102" fill="none" xmlns="http://www.w3.org/2000/svg">
<path fill-rule="evenodd" clip-rule="evenodd" d="M102 44.2286C101.875 44.6696 101.755 45.1105 101.625 45.5489C100.528 49.3105 98.0921 51.7651 94.3783 52.9686C94.0967 53.0589 93.8045 53.1279 93.4272 53.2315C93.4272 55.1814 93.4272 57.1313 93.4272 59.0812C93.4272 60.6087 93.4086 62.1362 93.4352 63.6611C93.4538 64.6679 93.2094 65.5074 92.2185 65.9537C91.2569 66.3893 90.5024 65.9802 89.7772 65.3612C85.3169 61.5412 80.8539 57.7211 76.3644 53.9355C76.0031 53.63 75.4426 53.4414 74.9644 53.4148C73.6733 53.3431 72.3769 53.3909 70.9211 53.3909C70.9211 53.8 70.9211 54.1799 70.9211 54.5598C70.9211 62.3939 70.9238 70.2253 70.9211 78.0594C70.9185 84.7459 66.429 89.2487 59.7584 89.2487C48.9065 89.2514 38.0519 89.2408 27.2 89.2753C26.6395 89.278 25.9674 89.5277 25.5397 89.889C21.1192 93.6028 16.7386 97.3671 12.3421 101.11C11.9675 101.429 11.5557 101.705 11.1626 102C10.7641 102 10.3656 102 9.96713 102C8.89389 101.413 8.51401 100.52 8.55651 99.2957C8.6309 97.1758 8.57777 95.0532 8.57777 92.9307C8.57777 91.6476 8.57777 90.3671 8.57777 89.0893C8.18726 88.9831 7.8977 88.9167 7.61611 88.8237C3.98463 87.6442 1.57516 85.248 0.424885 81.6006C0.26815 81.1012 0.145952 80.5911 0.0078125 80.0864C0.0078125 68.4003 0.0078125 56.7116 0.0078125 45.0255C0.0582865 44.9432 0.135327 44.8661 0.153922 44.7758C1.37327 39.0988 5.36071 35.8658 11.1599 35.8632C17.432 35.8605 23.7014 35.8632 29.9734 35.8632C30.3241 35.8632 30.6748 35.8632 31.0839 35.8632C31.0839 35.3372 31.0839 34.944 31.0839 34.5482C31.0839 26.6185 31.0626 18.6887 31.0918 10.759C31.1078 6.60153 32.9381 3.40838 36.5563 1.36552C37.6827 0.727949 39.0109 0.449011 40.2462 0.00537109C46.2234 0.00537109 52.1979 0.00537109 58.1751 0.00537109C58.2787 0.0797538 58.3797 0.159451 58.4859 0.231177C59.3706 0.815613 59.7372 1.6471 59.4954 2.50782C59.2351 3.42698 58.4833 3.98219 57.3835 3.98485C52.3706 3.99548 47.3577 3.99016 42.3449 3.99016C37.7385 3.99016 35.066 6.66794 35.066 11.2876C35.066 21.6109 35.0633 31.9368 35.066 42.2601C35.066 46.6726 37.7942 49.4088 42.1935 49.4115C53.3801 49.4088 64.5694 49.4168 75.756 49.3929C76.7868 49.3902 77.5917 49.6824 78.3674 50.3545C81.6748 53.2262 85.022 56.0554 88.3533 58.9006C88.6535 59.1556 88.9616 59.3973 89.376 59.7321C89.4053 59.3416 89.4424 59.0679 89.4424 58.7917C89.4478 56.4008 89.4345 54.0099 89.4504 51.6217C89.4584 50.227 90.1836 49.4965 91.5836 49.4088C95.3718 49.1671 98.0044 46.4335 98.0097 42.6586C98.023 32.0351 98.023 21.4117 98.0097 10.7882C98.0044 6.83265 95.1752 4.0061 91.2303 3.99548C86.0527 3.97954 80.8725 3.99548 75.6949 3.98751C74.5978 3.98485 73.8433 3.42964 73.583 2.51048C73.3386 1.64711 73.7078 0.818268 74.5925 0.233833C74.6987 0.162106 74.8023 0.0850695 74.9059 0.00803021C80.8831 0.00803021 86.8576 0.00803021 92.8348 0.00803021C93.0155 0.0717869 93.1908 0.156793 93.3768 0.196641C97.3456 1.0547 100.029 3.39244 101.421 7.19925C101.655 7.83947 101.806 8.51157 101.997 9.17039C102 20.8538 102 32.5399 102 44.2286ZM12.5572 95.6403C13.0221 95.2684 13.3303 95.0373 13.6252 94.7849C16.9565 91.9398 20.3037 89.1133 23.6057 86.2362C24.4107 85.5349 25.2422 85.2453 26.3074 85.248C37.4914 85.2746 48.678 85.2666 59.8647 85.2639C64.2001 85.2613 66.9363 82.5118 66.939 78.1604C66.9417 70.2599 66.939 62.362 66.939 54.4615C66.939 54.1135 66.939 53.7682 66.939 53.2475C57.4791 53.2475 48.1813 53.2475 38.8569 53.2475C38.9498 53.5105 39.0561 53.8186 39.173 54.1268C41.4842 60.266 43.8007 66.4053 46.1118 72.5445C46.6724 74.0375 46.2792 75.1479 45.0572 75.5836C43.9096 75.9927 42.9479 75.3923 42.3821 73.9073C41.9916 72.8872 41.5878 71.8697 41.2318 70.8363C41.0591 70.3396 40.8413 70.1031 40.2542 70.1085C37.069 70.143 33.8812 70.143 30.696 70.1085C30.1116 70.1031 29.8884 70.3343 29.7104 70.831C29.2748 72.0477 28.8338 73.2644 28.3211 74.4492C27.8535 75.5331 26.7909 75.9528 25.7841 75.5464C24.7613 75.1346 24.3071 74.1251 24.6498 73.0174C24.7295 72.765 24.8224 72.5153 24.9154 72.2682C26.6873 67.6246 28.4592 62.981 30.2285 58.3374C31.3256 55.463 32.4201 52.586 33.5624 49.5894C31.1157 46.9143 30.9059 43.4608 31.1051 39.9091C30.8554 39.8798 30.7279 39.8506 30.603 39.8506C23.8661 39.848 17.1265 39.8161 10.3895 39.8666C6.82977 39.8931 4.00588 42.8153 3.99791 46.4282C3.974 57.1818 3.974 67.9354 3.99791 78.689C4.00588 82.2647 6.7182 85.0434 10.2939 85.2613C11.8878 85.3569 12.5519 86.0503 12.5572 87.6522C12.5626 90.2396 12.5572 92.8271 12.5572 95.6403ZM39.4227 66.0971C38.1157 62.641 36.8538 59.2964 35.4937 55.6941C34.1176 59.3097 32.8425 62.6622 31.5355 66.0971C34.2 66.0971 36.7396 66.0971 39.4227 66.0971Z" fill="#55ABFF"/>
<path fill-rule="evenodd" clip-rule="evenodd" d="M67.1383 0.00265507C67.295 0.114229 67.4571 0.22049 67.6111 0.334721C68.3815 0.900561 68.7216 1.64173 68.4214 2.57152C68.1265 3.48536 67.4518 3.98744 66.4901 3.96619C65.5736 3.9476 64.9334 3.44286 64.6571 2.57152C64.3622 1.64173 64.6996 0.897906 65.47 0.332066C65.6267 0.217835 65.7861 0.111574 65.9428 0C66.3413 0.00265653 66.7398 0.00265507 67.1383 0.00265507Z" fill="#87C4FF"/>
<path fill-rule="evenodd" clip-rule="evenodd" d="M68.5328 17.4481C70.0948 17.4481 71.5479 17.4481 73.0011 17.4481C75.1582 17.4481 77.3153 17.4401 79.4724 17.4507C80.9706 17.4587 81.8473 18.1786 81.8712 19.3873C81.8951 20.6173 80.9839 21.4116 79.4538 21.4276C77.464 21.4488 75.4769 21.4329 73.365 21.4329C73.2481 26.1004 71.9172 30.3349 69.1889 34.1762C70.565 35.6134 72.1483 36.7663 73.9521 37.5075C75.5619 38.169 77.2834 38.5675 78.9543 39.0802C79.1111 39.128 79.2784 39.1439 79.4405 39.1811C80.6704 39.468 81.3 40.3261 81.1247 41.4737C80.96 42.539 80.0754 43.2084 78.8746 43.0836C76.4067 42.8285 74.0371 42.1485 71.8827 40.9451C70.0125 39.9037 68.2724 38.6312 66.3943 37.4092C65.7434 37.9246 64.9651 38.5887 64.1389 39.1864C61.3522 41.2054 58.2414 42.4672 54.8463 43.0118C53.1223 43.2881 52.1128 42.709 51.9454 41.4232C51.7727 40.1136 52.5591 39.3299 54.2672 39.0563C57.7685 38.4984 60.8182 36.9895 63.4508 34.6278C63.5969 34.4977 63.7165 34.3409 63.8759 34.1683C61.2114 30.3933 59.8247 26.2093 59.729 21.4966C59.3545 21.4727 59.0065 21.4355 58.6611 21.4329C56.9344 21.4249 55.2103 21.4515 53.4835 21.4196C52.0809 21.393 51.2175 20.612 51.2042 19.4458C51.191 18.2397 52.0862 17.456 53.542 17.4507C56.8281 17.4375 60.1142 17.4454 63.4004 17.4454C63.7563 17.4454 64.115 17.4454 64.5453 17.4454C64.5453 15.7692 64.54 14.2124 64.5453 12.6584C64.5506 11.1813 65.2812 10.3073 66.5058 10.2887C67.7703 10.2701 68.5221 11.1601 68.5275 12.6956C68.5354 14.2231 68.5328 15.7479 68.5328 17.4481ZM66.5404 30.9485C68.392 27.9493 69.3244 24.8704 69.3191 21.4913C67.3984 21.4913 65.6186 21.4913 63.7457 21.4913C63.7802 24.9049 64.6861 27.9732 66.5404 30.9485Z" fill="#87C4FF"/>
</svg>
