<svg width="102" height="102" viewBox="0 0 102 102" fill="none" xmlns="http://www.w3.org/2000/svg">
<path fill-rule="evenodd" clip-rule="evenodd" d="M101.995 3.59134C101.729 5.52515 101.508 7.46426 101.192 9.39009C98.9584 23.009 94.5383 35.7541 85.7777 46.6423C83.3977 49.5988 80.5076 52.1462 77.846 54.8742C77.6175 55.1107 77.3545 55.3125 77.1739 55.4746C77.8194 57.1321 78.5977 58.6861 79.0333 60.3303C80.3004 65.0904 79.2591 69.4149 76.1247 73.1869C72.3819 77.692 67.4252 80.3005 61.8815 81.8067C59.7245 82.3911 57.4481 82.5531 55.2194 82.8506C54.2791 82.9754 53.5141 82.5717 53.1236 81.6712C52.7358 80.776 52.9987 80.0004 53.6575 79.3124C56.181 76.672 57.2674 73.495 57.1453 69.8771C57.0948 68.3923 56.6724 68.1532 55.2965 68.6419C52.7995 69.5265 50.2973 70.4031 47.7684 71.1947C45.5796 71.88 45.4229 71.8295 43.2872 71.37C42.6125 72.4219 41.9697 73.4977 41.2578 74.5284C38.8831 77.963 35.4006 79.7985 31.5197 80.8318C28.295 81.6898 24.9825 82.237 21.6914 82.8161C20.0896 83.0976 18.9979 82.1121 19.1519 80.5874C19.6221 75.9521 20.5306 71.4178 22.3847 67.1013C23.9094 63.5551 26.4966 61.0502 29.8197 59.2226C30.08 59.0792 30.343 58.9464 30.7228 58.7445C29.7958 56.6779 30.5927 54.7255 31.2143 52.7811C31.889 50.6666 32.6752 48.5894 33.4376 46.5042C33.8254 45.4363 33.5545 44.9343 32.4096 44.8679C28.8741 44.6633 25.7237 45.6382 23.0434 47.9997C22.9186 48.1086 22.7991 48.2255 22.6795 48.3397C21.9995 49.0038 21.2106 49.2535 20.318 48.863C19.4149 48.4672 19.1068 47.7101 19.1307 46.7592C19.213 43.646 19.8532 40.6417 20.9131 37.7224C22.3422 33.7778 24.353 30.1784 27.3334 27.1848C32.4734 22.0262 38.9149 21.0407 45.3751 24.3903C45.6965 24.5577 46.0153 24.7303 46.4137 24.9428C46.7856 24.5231 47.1575 24.1114 47.5214 23.6917C54.4199 15.7121 62.9626 10.0887 72.698 6.20782C80.7546 2.99633 89.1061 0.974872 97.7471 0.164695C97.9702 0.143444 98.1907 0.0557827 98.4112 0C99.6065 0 100.802 0 101.997 0C101.995 1.20066 101.995 2.396 101.995 3.59134ZM92.8276 25.9071C92.6921 25.7424 92.5274 25.5139 92.3309 25.3147C87.1245 20.1004 81.9075 14.8966 76.7144 9.669C76.292 9.24399 75.9387 9.16696 75.4234 9.414C71.9303 11.0875 68.3045 12.5272 64.9548 14.4504C52.8951 21.3781 44.8013 31.8705 38.8326 44.1852C38.7024 44.4508 38.8379 45.0299 39.0584 45.2531C44.9262 51.166 50.8285 57.0471 56.7016 62.9548C57.1479 63.4037 57.4906 63.401 57.9926 63.1327C59.7458 62.1924 61.5441 61.3344 63.2681 60.3489C76.9401 52.5367 87.0421 41.6139 92.5274 26.6827C92.6071 26.4649 92.6948 26.2497 92.8276 25.9071ZM23.6066 42.7163C27.6282 40.9233 31.5065 40.2486 35.4219 41.4253C38.1366 37.0025 40.8833 32.5293 43.6352 28.0454C40.0598 25.591 35.0022 25.8938 31.3152 28.9592C27.5857 32.0591 25.4899 36.187 24.106 40.7347C23.9253 41.327 23.8005 41.9353 23.6066 42.7163ZM59.3739 78.2366C59.528 78.2684 59.5944 78.303 59.6528 78.2897C64.9309 77.0333 69.6539 74.7834 73.1815 70.5093C76.3558 66.663 76.1618 61.8577 73.9385 58.3753C69.4573 61.1246 64.9787 63.8739 60.54 66.5966C61.8788 70.5226 60.965 74.3822 59.3739 78.2366ZM23.3702 78.6005C27.2564 77.9869 30.8344 77.2165 34.1601 75.5431C36.8058 74.2096 38.4952 72.0022 39.6746 69.3671C39.8022 69.0829 39.6906 68.5091 39.4701 68.2807C37.5815 66.323 35.6583 64.4025 33.7032 62.5085C33.4881 62.2987 32.9648 62.1791 32.6965 62.2907C30.6485 63.1513 28.8103 64.3759 27.5114 66.1875C24.9002 69.8267 24.1989 74.1219 23.3702 78.6005ZM80.6802 7.66083C85.2411 12.2217 89.7967 16.7773 94.3629 21.3462C96.0524 15.821 97.2504 10.0993 97.8215 4.22089C94.4772 4.25277 84.9888 6.1786 80.6802 7.66083ZM53.1236 65.3561C47.5639 59.7964 42.161 54.3908 36.6518 48.8816C35.9239 51.2271 35.1961 53.6258 34.4284 56.0111C34.1575 56.8532 34.4019 57.5199 34.973 58.0937C37.9454 61.0821 40.9125 64.0731 43.9301 67.0136C44.3126 67.3882 45.059 67.7574 45.5053 67.6405C48.0819 66.9578 50.6213 66.1238 53.1236 65.3561Z" fill="#55ABFF"/>
<path fill-rule="evenodd" clip-rule="evenodd" d="M2.39624 101.995C0.619166 100.853 0.494319 99.6572 1.9978 98.1511C6.19212 93.9541 10.3891 89.7571 14.5887 85.5654C14.8464 85.3078 15.1094 85.0474 15.4122 84.8509C16.2064 84.3329 17.2158 84.4577 17.8693 85.1192C18.5121 85.77 18.6317 86.8139 18.1084 87.5869C17.8879 87.911 17.5957 88.1925 17.3141 88.4714C13.2845 92.5064 9.25486 96.5413 5.2146 100.566C4.70458 101.073 4.13613 101.522 3.59424 101.997C3.19314 101.995 2.79469 101.995 2.39624 101.995Z" fill="#87C4FF"/>
<path fill-rule="evenodd" clip-rule="evenodd" d="M18.3314 101.995C16.5569 100.853 16.4294 99.6572 17.9329 98.1511C22.1272 93.9541 26.3242 89.7571 30.5239 85.5654C30.7815 85.3078 31.0445 85.0474 31.3473 84.8509C32.1416 84.3329 33.151 84.4577 33.8044 85.1192C34.4473 85.77 34.5668 86.8139 34.0435 87.5869C33.823 87.911 33.5308 88.1925 33.2493 88.4714C29.2196 92.5064 25.19 96.5413 21.1497 100.566C20.6397 101.073 20.0713 101.522 19.5294 101.997C19.1283 101.995 18.7298 101.995 18.3314 101.995Z" fill="#55ABFF"/>
<path fill-rule="evenodd" clip-rule="evenodd" d="M0.00537109 82.4734C0.459602 81.9554 0.887269 81.4108 1.37072 80.9247C5.41629 76.8606 9.47515 72.807 13.5287 68.7508C13.7864 68.4932 14.0387 68.2222 14.3309 68.0097C15.088 67.4572 16.1292 67.521 16.8092 68.1292C17.5265 68.7721 17.6832 69.824 17.1519 70.6554C16.958 70.9582 16.6977 71.2239 16.44 71.4789C12.2457 75.6785 8.05136 79.8728 3.85172 84.0672C2.34559 85.5706 1.15024 85.4431 0.00537109 83.6661C0.00537109 83.2703 0.00537109 82.8718 0.00537109 82.4734Z" fill="#55ABFF"/>
<path fill-rule="evenodd" clip-rule="evenodd" d="M48.4568 83.9822C48.3107 84.2399 48.1194 84.8243 47.7343 85.2227C45.9917 87.0343 44.204 88.8034 42.4137 90.5672C41.4654 91.5022 40.2222 91.5368 39.42 90.7C38.6178 89.8633 38.6603 88.7237 39.5847 87.7887C41.3724 85.9744 43.1787 84.1788 44.985 82.3804C45.6252 81.7429 46.3742 81.4906 47.2455 81.8704C48.0132 82.2104 48.417 82.8108 48.4568 83.9822Z" fill="#55ABFF"/>
<path fill-rule="evenodd" clip-rule="evenodd" d="M10.6997 60.8297C10.8325 60.5933 11.0185 60.0408 11.385 59.661C13.1621 57.8228 14.9737 56.0191 16.7986 54.2288C17.7018 53.3416 18.937 53.3283 19.7259 54.1358C20.5201 54.9486 20.5201 56.0882 19.6409 56.986C17.8054 58.8587 15.9433 60.7075 14.0732 62.5457C13.4517 63.1567 12.6973 63.3293 11.8765 62.9574C11.1035 62.6068 10.721 61.9932 10.6997 60.8297Z" fill="#55ABFF"/>
<path fill-rule="evenodd" clip-rule="evenodd" d="M71.8586 40.1025C66.3441 40.1157 61.9346 35.7381 61.9001 30.213C61.8656 24.6905 66.3627 20.1721 71.8613 20.2013C77.3386 20.2332 81.7986 24.7038 81.7959 30.1652C81.7906 35.6531 77.3572 40.0892 71.8586 40.1025ZM71.8161 36.1206C75.1206 36.1286 77.7743 33.5095 77.8088 30.2077C77.8407 26.9059 75.102 24.1619 71.8002 24.1884C68.5064 24.215 65.8766 26.874 65.8793 30.1758C65.8819 33.4909 68.5011 36.1127 71.8161 36.1206Z" fill="#87C4FF"/>
<path fill-rule="evenodd" clip-rule="evenodd" d="M57.475 46.3953C57.0101 46.0128 56.2743 45.686 56.0618 45.1521C55.8307 44.5757 55.8307 43.6008 56.184 43.1546C57.135 41.9433 58.2825 40.8701 59.4407 39.8421C60.1871 39.178 61.2629 39.3427 61.9589 40.036C62.6283 40.7028 62.8381 41.76 62.2139 42.4692C61.1513 43.6805 59.9719 44.7962 58.7925 45.9012C58.5349 46.1456 58.078 46.1801 57.475 46.3953Z" fill="#87C4FF"/>
<path fill-rule="evenodd" clip-rule="evenodd" d="M52.069 51.8513C50.9693 51.8301 50.1405 50.9748 50.1485 49.8671C50.1591 48.7753 51.0251 47.9067 52.1089 47.9041C53.2245 47.9014 54.133 48.8444 54.0905 49.9547C54.0506 51.0438 53.1687 51.8699 52.069 51.8513Z" fill="#87C4FF"/>
</svg>
