<svg width="220" height="772" viewBox="0 0 220 772" fill="none" xmlns="http://www.w3.org/2000/svg">
<path d="M79.1667 6C79.1667 8.94552 81.5545 11.3333 84.5 11.3333C87.4455 11.3333 89.8333 8.94552 89.8333 6C89.8333 3.05448 87.4455 0.666667 84.5 0.666667C81.5545 0.666667 79.1667 3.05448 79.1667 6ZM208.667 766C208.667 768.945 211.054 771.333 214 771.333C216.946 771.333 219.333 768.945 219.333 766C219.333 763.055 216.946 760.667 214 760.667C211.054 760.667 208.667 763.055 208.667 766ZM49.8198 653.021L49.0054 652.44L49.8198 653.021ZM54.9841 676.24L54.4926 677.111L54.9841 676.24ZM188.138 430.369L187.588 431.204L188.138 430.369ZM192.366 453.017L191.552 452.437L192.366 453.017ZM5.64996 287.638L6.37547 288.326L5.64996 287.638ZM8.45656 312.011L7.90647 312.846L8.45656 312.011ZM194.171 58.5067L194.603 57.6048L194.171 58.5067ZM198.87 83.9495L199.596 84.6377L198.87 83.9495ZM84.0682 6.90196L87.4954 8.54279L88.3591 6.73888L84.9318 5.09804L84.0682 6.90196ZM94.3499 11.8245L101.204 15.1061L102.068 13.3022L95.2135 10.0205L94.3499 11.8245ZM108.059 18.3878L114.913 21.6695L115.777 19.8656L108.922 16.5839L108.059 18.3878ZM121.768 24.9511L128.622 28.2328L129.486 26.4289L122.631 23.1472L121.768 24.9511ZM135.477 31.5145L142.331 34.7962L143.195 32.9922L136.34 29.7106L135.477 31.5145ZM149.186 38.0778L156.04 41.3595L156.904 39.5556L150.049 36.2739L149.186 38.0778ZM162.894 44.6412L169.749 47.9228L170.613 46.1189L163.758 42.8372L162.894 44.6412ZM176.603 51.2045L183.458 54.4862L184.321 52.6823L177.467 49.4006L176.603 51.2045ZM190.312 57.7678L193.739 59.4087L194.603 57.6048L191.176 55.9639L190.312 57.7678ZM193.739 59.4087C194.837 59.9341 195.833 60.5677 196.725 61.2883L197.982 59.7323C196.969 58.9143 195.841 58.1973 194.603 57.6048L193.739 59.4087ZM200.974 66.8435C201.928 69.0054 202.365 71.3728 202.246 73.733L204.244 73.834C204.379 71.1619 203.884 68.4832 202.803 66.0356L200.974 66.8435ZM200.262 80.4391C199.686 81.4309 198.982 82.3786 198.145 83.2613L199.596 84.6377C200.54 83.6422 201.338 82.5696 201.992 81.4437L200.262 80.4391ZM198.145 83.2613L195.461 86.0903L196.912 87.4668L199.596 84.6377L198.145 83.2613ZM190.094 91.7483L184.727 97.4063L186.178 98.7828L191.545 93.1248L190.094 91.7483ZM179.359 103.064L173.992 108.722L175.443 110.099L180.81 104.441L179.359 103.064ZM168.625 114.38L163.258 120.038L164.709 121.415L170.076 115.757L168.625 114.38ZM157.89 125.696L152.523 131.354L153.974 132.731L159.341 127.073L157.89 125.696ZM147.156 137.012L141.789 142.67L143.24 144.047L148.607 138.389L147.156 137.012ZM136.422 148.328L131.054 153.986L132.505 155.363L137.873 149.705L136.422 148.328ZM125.687 159.644L120.32 165.302L121.771 166.679L127.138 161.021L125.687 159.644ZM114.953 170.96L109.585 176.618L111.036 177.995L116.404 172.337L114.953 170.96ZM104.218 182.276L98.8509 187.934L100.302 189.311L105.669 183.653L104.218 182.276ZM93.4837 193.592L88.1165 199.25L89.5675 200.627L94.9347 194.969L93.4837 193.592ZM82.7492 204.908L77.382 210.566L78.833 211.943L84.2003 206.285L82.7492 204.908ZM72.0148 216.224L66.6476 221.882L68.0986 223.259L73.4658 217.601L72.0148 216.224ZM61.2803 227.54L55.9131 233.198L57.3641 234.575L62.7314 228.917L61.2803 227.54ZM50.5459 238.856L45.1787 244.514L46.6297 245.891L51.9969 240.233L50.5459 238.856ZM39.8115 250.172L34.4442 255.83L35.8952 257.207L41.2625 251.549L39.8115 250.172ZM29.077 261.488L23.7098 267.146L25.1608 268.523L30.528 262.865L29.077 261.488ZM18.3426 272.804L12.9753 278.462L14.4263 279.839L19.7936 274.181L18.3426 272.804ZM7.60809 284.12L4.92446 286.949L6.37547 288.326L9.05909 285.497L7.60809 284.12ZM4.92446 286.949C4.05195 287.869 3.30355 288.858 2.67778 289.896L4.39073 290.929C4.94216 290.014 5.60282 289.14 6.37547 288.326L4.92446 286.949ZM0.346184 296.889C0.0928874 299.358 0.38108 301.86 1.18892 304.207L3.08001 303.556C2.36667 301.484 2.11207 299.273 2.33574 297.093L0.346184 296.889ZM5.0488 310.487C5.89419 311.356 6.84774 312.148 7.90647 312.846L9.00665 311.176C8.0691 310.558 7.22723 309.858 6.48227 309.092L5.0488 310.487ZM7.90647 312.846L11.3619 315.122L12.4621 313.452L9.00665 311.176L7.90647 312.846ZM18.2727 319.674L25.1836 324.226L26.2837 322.556L19.3729 318.004L18.2727 319.674ZM32.0944 328.779L39.0052 333.331L40.1054 331.661L33.1946 327.109L32.0944 328.779ZM45.916 337.883L52.8269 342.435L53.9271 340.765L47.0162 336.213L45.916 337.883ZM59.7377 346.988L66.6486 351.54L67.7487 349.87L60.8379 345.317L59.7377 346.988ZM73.5594 356.092L80.4702 360.644L81.5704 358.974L74.6596 354.422L73.5594 356.092ZM87.3811 365.197L94.2919 369.749L95.3921 368.079L88.4812 363.526L87.3811 365.197ZM101.203 374.301L108.114 378.853L109.214 377.183L102.303 372.631L101.203 374.301ZM115.024 383.406L121.935 387.958L123.035 386.288L116.125 381.735L115.024 383.406ZM128.846 392.51L135.757 397.062L136.857 395.392L129.946 390.84L128.846 392.51ZM142.668 401.615L149.579 406.167L150.679 404.497L143.768 399.944L142.668 401.615ZM156.489 410.719L163.4 415.271L164.5 413.601L157.59 409.049L156.489 410.719ZM170.311 419.824L177.222 424.376L178.322 422.706L171.411 418.153L170.311 419.824ZM184.133 428.928L187.588 431.204L188.688 429.534L185.233 427.258L184.133 428.928ZM187.588 431.204C188.446 431.77 189.226 432.407 189.926 433.102L191.336 431.683C190.542 430.895 189.658 430.173 188.688 429.534L187.588 431.204ZM193.237 438.089C193.993 439.957 194.368 441.963 194.337 443.978L196.336 444.009C196.372 441.726 195.947 439.454 195.091 437.338L193.237 438.089ZM193.048 449.823C192.646 450.724 192.148 451.6 191.552 452.437L193.18 453.597C193.855 452.651 194.419 451.66 194.874 450.638L193.048 449.823ZM191.552 452.437L189.176 455.77L190.805 456.931L193.18 453.597L191.552 452.437ZM184.424 462.437L179.673 469.104L181.302 470.264L186.053 463.598L184.424 462.437ZM174.921 475.77L170.17 482.437L171.799 483.598L176.55 476.931L174.921 475.77ZM165.418 489.104L160.667 495.771L162.295 496.932L167.047 490.265L165.418 489.104ZM155.915 502.438L151.164 509.104L152.792 510.265L157.544 503.598L155.915 502.438ZM146.412 515.771L141.661 522.438L143.289 523.599L148.041 516.932L146.412 515.771ZM136.909 529.105L132.157 535.771L133.786 536.932L138.538 530.265L136.909 529.105ZM127.406 542.438L122.654 549.105L124.283 550.266L129.035 543.599L127.406 542.438ZM117.903 555.772L113.151 562.439L114.78 563.599L119.532 556.933L117.903 555.772ZM108.4 569.105L103.648 575.772L105.277 576.933L110.028 570.266L108.4 569.105ZM98.8967 582.439L94.1451 589.106L95.7738 590.266L100.525 583.6L98.8967 582.439ZM89.3936 595.773L84.642 602.439L86.2707 603.6L91.0223 596.933L89.3936 595.773ZM79.8905 609.106L75.1389 615.773L76.7676 616.934L81.5192 610.267L79.8905 609.106ZM70.3874 622.44L65.6359 629.106L67.2645 630.267L72.0161 623.6L70.3874 622.44ZM60.8843 635.773L56.1328 642.44L57.7614 643.601L62.513 636.934L60.8843 635.773ZM51.3812 649.107L49.0054 652.44L50.6341 653.601L53.0099 650.268L51.3812 649.107ZM49.0054 652.44C48.3011 653.428 47.7177 654.465 47.2522 655.533L49.0855 656.332C49.4958 655.391 50.0107 654.476 50.6341 653.601L49.0054 652.44ZM45.8474 662.466C45.8726 664.847 46.3964 667.202 47.3826 669.369L49.2029 668.54C48.3322 666.627 47.8695 664.547 47.8473 662.445L45.8474 662.466ZM51.5937 675.053C52.468 675.823 53.4357 676.515 54.4926 677.111L55.4757 675.37C54.5403 674.841 53.686 674.231 52.9154 673.552L51.5937 675.053ZM54.4926 677.111L58.1066 679.151L59.0897 677.409L55.4757 675.37L54.4926 677.111ZM65.3346 683.231L72.5626 687.311L73.5457 685.569L66.3177 681.489L65.3346 683.231ZM79.7905 691.391L87.0185 695.471L88.0017 693.729L80.7737 689.649L79.7905 691.391ZM94.2465 699.551L101.475 703.631L102.458 701.889L95.2297 697.809L94.2465 699.551ZM108.703 707.711L115.931 711.791L116.914 710.049L109.686 705.969L108.703 707.711ZM123.159 715.871L130.387 719.951L131.37 718.209L124.142 714.129L123.159 715.871ZM137.615 724.031L144.842 728.111L145.826 726.369L138.598 722.289L137.615 724.031ZM152.07 732.191L159.298 736.271L160.282 734.529L153.054 730.449L152.07 732.191ZM166.526 740.351L173.754 744.431L174.738 742.689L167.51 738.609L166.526 740.351ZM180.982 748.511L188.21 752.591L189.194 750.849L181.966 746.769L180.982 748.511ZM195.438 756.671L202.666 760.751L203.65 759.009L196.422 754.929L195.438 756.671ZM209.894 764.831L213.508 766.871L214.492 765.129L210.878 763.089L209.894 764.831Z" fill="#DBEDFF"/>
</svg>
