<svg width="165" height="130" viewBox="0 0 165 130" fill="none" xmlns="http://www.w3.org/2000/svg">
<path d="M146.926 64.6356C146.926 60.8345 146.578 57.1193 145.949 53.4981H141.996H139.18H136.34C136.34 53.5022 136.34 53.5063 136.344 53.5103H119.137C118.536 49.0145 117.461 44.5963 115.855 40.2271C118.446 38.4778 120.903 36.5609 123.216 34.3866C124.655 32.9601 129.216 28.3131 132.4 23.8662C120.576 9.4059 102.605 0.168945 82.4671 0.168945C46.864 0.168945 18.0005 29.0324 18.0005 64.6356C18.0005 100.239 46.864 129.102 82.4671 129.102C118.07 129.102 146.926 100.239 146.926 64.6356ZM122.345 27.1523C119.766 30.1237 116.901 32.67 113.705 34.8402C113.235 34.5868 113.17 34.1536 113.002 33.8021C110.166 27.7817 106.524 22.3172 101.816 17.5884C100.745 16.5094 99.6168 15.4876 98.4438 14.5189C97.2708 13.5503 96.0365 12.6675 94.7204 11.8132C101.701 11.989 117.482 20.7437 122.345 27.1523ZM113.354 53.5103H99.6985V61.4026C93.0569 61.4231 86.3949 61.3904 85.4589 61.2678V49.7747C94.3444 49.2842 102.678 47.0853 110.554 43.1903C111.555 44.8987 112.688 49.2761 113.354 53.5103ZM85.3772 14.1879C85.9698 14.0489 86.4398 14.3023 86.9099 14.4658C89.5992 15.3977 92.031 16.8077 94.279 18.5407C100.152 23.0692 105.592 30.4833 108.682 37.926C101.427 41.7516 93.67 43.6317 85.3772 44.0854V14.1879ZM79.4999 14.1715V44.0404C71.2847 43.6194 63.5763 41.6576 56.3543 37.9587C56.3175 37.5051 56.526 37.2271 56.6608 36.9329C59.6976 30.4016 63.7316 24.5897 69.1471 19.7954C71.722 17.5148 74.5544 15.6388 77.8119 14.4699C78.3228 14.2819 78.8336 13.9958 79.4999 14.1715ZM79.5162 49.7706V61.1778C78.711 61.4108 52.4633 61.4762 51.0655 61.2228C51.1064 55.0839 52.1936 49.1289 54.2372 43.1944C62.2643 47.1712 70.6716 49.2311 79.5162 49.7706ZM70.2302 11.7233C66.0572 14.5802 62.4523 18.0216 59.3216 21.9698C56.2235 25.8771 53.6445 30.1032 51.5478 34.8076C48.1391 32.5841 45.2618 30.0991 42.6583 27.0583C50.3135 19.0843 59.5219 14.0816 70.2302 11.7233ZM38.9144 31.3784C41.9716 34.8321 45.3844 37.7094 49.259 40.1331C47.9511 43.5418 46.9988 46.9995 46.3244 50.5308C45.646 54.0662 45.4212 57.6465 45.2781 61.3086H27.5031C28.2225 50.1507 32.0521 40.2843 38.9144 31.3784ZM69.3024 117.425C69.5967 116.113 81.6783 89.0481 82.5489 87.822C87.0897 97.6352 91.4016 107.469 95.783 117.262C92.3744 119.383 74.2969 119.473 69.3024 117.425ZM113.648 109.492C115.818 103.447 118.132 97.6516 120.375 91.8274C122.615 86.0154 124.867 80.2076 127.176 74.2281H112.173C109.013 82.8724 105.882 91.5127 102.829 100.451C101.374 97.4268 100.271 94.4963 99.0323 91.6271C97.7817 88.7334 96.5596 85.8234 95.3212 82.9256C94.0828 80.0319 92.8321 77.1423 91.5815 74.2322H73.3283C69.6744 82.897 66.0286 91.5331 62.387 100.173C62.3093 100.177 62.2316 100.177 62.154 100.182C59.0437 91.5454 55.9333 82.9051 52.8189 74.2526H37.8926C42.4743 86.0604 47.0193 97.766 51.5642 109.472L51.3271 109.623C44.8817 105.131 39.5234 99.5848 35.3831 92.8819C30.5276 85.0182 27.9241 76.4515 27.4909 67.3004C27.5889 67.1819 27.6094 67.1533 27.6339 67.1287C27.6625 67.1042 27.6911 67.0674 27.7238 67.0633C27.871 67.0388 28.014 67.0061 28.1611 67.0061C64.4305 67.0061 100.7 67.0061 136.965 67.0102C137.071 67.0102 137.178 67.0633 137.427 67.1287C137.227 73.6682 135.772 79.9338 133.213 85.9501C129.183 95.4363 121.156 105.127 113.648 109.492Z" fill="white"/>
<path d="M159.903 71.1175C162.612 71.1175 164.808 68.9217 164.808 66.2129C164.808 63.5042 162.612 61.3083 159.903 61.3083C157.194 61.3083 154.999 63.5042 154.999 66.2129C154.999 68.9217 157.194 71.1175 159.903 71.1175Z" fill="white"/>
<path d="M5.012 71.1175C7.72073 71.1175 9.91658 68.9217 9.91658 66.2129C9.91658 63.5042 7.72073 61.3083 5.012 61.3083C2.30328 61.3083 0.107422 63.5042 0.107422 66.2129C0.107422 68.9217 2.30328 71.1175 5.012 71.1175Z" fill="white"/>
</svg>
