<svg width="107" height="84" viewBox="0 0 107 84" fill="none" xmlns="http://www.w3.org/2000/svg">
<path d="M97.3329 41.7389C97.3329 39.2966 97.1097 36.9094 96.7053 34.5826H94.1658H92.3564H90.5312C90.5312 34.5853 90.5312 34.5879 90.5338 34.5905H79.4777C79.0917 31.7018 78.401 28.8629 77.3689 26.0555C79.0339 24.9315 80.6122 23.6999 82.0986 22.3028C83.023 21.3862 85.9538 18.4003 87.9996 15.5431C80.4021 6.25175 68.8549 0.31665 55.9159 0.31665C33.0395 0.31665 14.4937 18.8625 14.4937 41.7389C14.4937 64.6153 33.0395 83.1611 55.9159 83.1611C78.7923 83.1611 97.3329 64.6153 97.3329 41.7389ZM81.5392 17.6545C79.8821 19.5637 78.0412 21.1998 75.9876 22.5943C75.6856 22.4314 75.6435 22.1531 75.5359 21.9272C73.7133 18.0589 71.3734 14.5477 68.3481 11.5093C67.66 10.816 66.9352 10.1595 66.1815 9.53706C65.4278 8.91466 64.6347 8.34741 63.7891 7.79855C68.2746 7.91147 78.4141 13.5367 81.5392 17.6545ZM75.7617 34.5905H66.9877V39.6616C62.7202 39.6747 58.4396 39.6537 57.8382 39.575V32.1902C63.5475 31.8751 68.9022 30.4622 73.9628 27.9595C74.6062 29.0572 75.3337 31.8698 75.7617 34.5905ZM57.7857 9.32434C58.1665 9.23505 58.4685 9.39787 58.7705 9.50292C60.4985 10.1017 62.0611 11.0077 63.5055 12.1212C67.2792 15.031 70.7747 19.7948 72.76 24.577C68.0986 27.0351 63.1142 28.2431 57.7857 28.5346V9.32434ZM54.0093 9.31383V28.5057C48.7308 28.2352 43.7778 26.9747 39.1374 24.598C39.1138 24.3065 39.2477 24.1279 39.3344 23.9389C41.2856 19.7423 43.8776 16.0079 47.3573 12.9274C49.0118 11.462 50.8317 10.2566 52.9247 9.50555C53.253 9.38474 53.5813 9.20091 54.0093 9.31383ZM54.0198 32.1876V39.5172C53.5025 39.6669 36.6373 39.7089 35.7392 39.5461C35.7655 35.6016 36.464 31.7753 37.7771 27.9621C42.9348 30.5174 48.3368 31.8409 54.0198 32.1876ZM48.0532 7.74077C45.3719 9.57645 43.0557 11.7877 41.044 14.3245C39.0534 16.8351 37.3963 19.5506 36.0491 22.5733C33.8589 21.1446 32.0101 19.5479 30.3372 17.5941C35.256 12.4705 41.1727 9.25606 48.0532 7.74077ZM27.9317 20.3699C29.896 22.589 32.0889 24.4378 34.5784 25.9951C33.7381 28.1853 33.1262 30.4071 32.6929 32.6761C32.2569 34.9477 32.1125 37.2482 32.0206 39.6012H20.5994C21.0617 32.4318 23.5223 26.0923 27.9317 20.3699ZM47.4571 75.6582C47.6462 74.8152 55.4091 57.4249 55.9684 56.637C58.8861 62.9424 61.6567 69.2609 64.4719 75.5532C62.2817 76.9162 50.6662 76.9739 47.4571 75.6582ZM75.9508 70.5609C77.3453 66.6768 78.8317 62.9529 80.2734 59.2107C81.7126 55.4763 83.1596 51.7445 84.6434 47.9025H75.0028C72.9727 53.4568 70.9611 59.0084 68.9994 64.7518C68.0645 62.8085 67.3554 60.9255 66.5597 59.082C65.7561 57.2227 64.9709 55.3528 64.1751 53.4909C63.3794 51.6316 62.5758 49.7749 61.7722 47.9051H50.0438C47.6961 53.4725 45.3535 59.0216 43.0136 64.5733C42.9637 64.5759 42.9138 64.5759 42.8639 64.5785C40.8654 59.0295 38.8669 53.4778 36.8658 47.9182H27.2751C30.219 55.5052 33.1393 63.0265 36.0596 70.5477L35.9073 70.6449C31.7658 67.7588 28.323 64.1951 25.6627 59.8882C22.5428 54.8355 20.8699 49.3311 20.5916 43.4511C20.6546 43.375 20.6677 43.3566 20.6835 43.3408C20.7019 43.3251 20.7203 43.3015 20.7413 43.2988C20.8358 43.2831 20.9277 43.2621 21.0223 43.2621C44.3267 43.2621 67.6311 43.2621 90.933 43.2647C91.0012 43.2647 91.0695 43.2988 91.2297 43.3408C91.101 47.5427 90.1661 51.5686 88.5222 55.4343C85.9328 61.5295 80.775 67.7561 75.9508 70.5609Z" fill="#002859"/>
<path d="M103.38 45.9614C105.121 45.9614 106.532 44.5505 106.532 42.8101C106.532 41.0696 105.121 39.6587 103.38 39.6587C101.64 39.6587 100.229 41.0696 100.229 42.8101C100.229 44.5505 101.64 45.9614 103.38 45.9614Z" fill="#002859"/>
<path d="M3.85695 45.9614C5.5974 45.9614 7.00832 44.5505 7.00832 42.8101C7.00832 41.0696 5.5974 39.6587 3.85695 39.6587C2.11649 39.6587 0.705566 41.0696 0.705566 42.8101C0.705566 44.5505 2.11649 45.9614 3.85695 45.9614Z" fill="#002859"/>
</svg>
