<svg width="306" height="208" viewBox="0 0 306 208" fill="none" xmlns="http://www.w3.org/2000/svg">
<path opacity="0.1" d="M133.036 12.6307C57.2546 -36.4216 14.1902 68.8831 0.98546 132.075C0.330553 135.209 1.13153 138.436 3.1515 140.92C16.6498 157.52 40.4485 184.485 48.2397 184.485C58.761 184.485 132.599 248.925 270.127 163.389C270.92 162.895 271.704 162.252 272.339 161.568C359.492 67.7941 253.491 -13.6332 215.194 17.5301C176.753 48.8105 159.417 27.7056 133.036 12.6307Z" fill="url(#paint0_linear_4193_240)"/>
<path d="M284.671 191.284C284.671 191.311 230.405 191.332 163.476 191.332C96.5262 191.332 42.2656 191.311 42.2656 191.284C42.2656 191.258 96.521 191.237 163.476 191.237C230.4 191.237 284.671 191.258 284.671 191.284Z" fill="#263238"/>
<path d="M146.059 63.3254C146.059 63.3254 145.801 65.7525 145.342 66.8763C144.883 68.0002 144.186 68.3959 144.213 70.1318C144.239 71.8729 144.186 73.7407 144.186 73.7407C144.186 73.7407 141.622 77.3443 141.796 77.3602C141.97 77.376 146.381 81.655 146.381 81.655L150.533 74.8487L156.517 68.3906L157.957 62.2438L157.588 61.8798L157.598 60.7506C157.598 60.7506 156.675 59.7323 156.005 60.9089C156.005 60.9089 155.709 59.4527 154.533 60.8667C153.356 62.2807 151.457 65.6153 151.256 65.7208C151.056 65.8264 148.692 67.6941 148.692 67.6941L147.347 67.9632C147.347 67.9632 148.122 66.9871 148.08 65.8738C148.038 64.7606 148.507 63.9111 147.674 63.2674C146.851 62.629 146.059 63.3254 146.059 63.3254Z" fill="#FFBF9D"/>
<path d="M148.112 71.6302C148.127 71.6407 148.244 71.5194 148.476 71.3189C148.713 71.1237 149.077 70.8651 149.568 70.6013C150.549 70.079 152.016 69.5197 153.726 69.0976L153.768 69.0871L153.794 69.0554C153.995 68.8021 154.206 68.5383 154.422 68.2745C154.528 68.1426 154.633 68.016 154.733 67.8841L154.76 67.8524V67.8155C154.77 67.1349 154.786 66.4859 154.797 65.8686C154.797 65.5784 154.86 65.2987 155.018 65.1035C155.171 64.9083 155.44 64.8397 155.662 64.8608L155.583 64.7922C156.153 66.5914 156.627 67.7363 156.696 67.7047C156.712 67.6941 156.591 67.4145 156.432 66.8974C156.269 66.3804 156.042 65.6364 155.773 64.7342L155.757 64.6709L155.694 64.6656C155.403 64.6287 155.076 64.7131 154.855 64.9663C154.644 65.2196 154.575 65.552 154.57 65.8686C154.554 66.4806 154.538 67.1349 154.522 67.8049L154.549 67.7363C154.448 67.863 154.343 67.9949 154.237 68.1268C154.021 68.3959 153.81 68.6597 153.609 68.9129L153.678 68.8707C151.947 69.3087 150.475 69.8996 149.499 70.4747C149.009 70.7596 148.655 71.0498 148.428 71.2714C148.196 71.4772 148.101 71.6196 148.112 71.6302Z" fill="#FF9A6C"/>
<path d="M154.269 63.5743C153.431 65.106 152.8 66.3737 152.859 66.4059C152.918 66.438 153.644 65.2224 154.481 63.6908C155.319 62.1591 155.95 60.8914 155.891 60.8593C155.832 60.8271 155.106 62.0427 154.269 63.5743Z" fill="#FF9A6C"/>
<path d="M156.01 64.6234C156.042 64.6286 156.1 64.4387 156.174 64.1327C156.253 63.8267 156.348 63.4098 156.543 62.9877C156.738 62.5709 157.023 62.2543 157.266 62.0802C157.509 61.9008 157.693 61.8375 157.683 61.8006C157.678 61.7742 157.467 61.7742 157.171 61.9325C156.876 62.0908 156.538 62.4232 156.322 62.8822C156.105 63.3412 156.037 63.7844 156 64.101C155.973 64.4229 155.979 64.6181 156.01 64.6234Z" fill="#FF9A6C"/>
<path d="M150.966 66.4965C150.966 66.5703 151.763 66.4964 152.602 66.9133C153.452 67.309 153.895 67.9738 153.953 67.9263C153.979 67.9105 153.905 67.7205 153.705 67.4673C153.504 67.214 153.161 66.908 152.708 66.6917C152.259 66.4753 151.8 66.4015 151.478 66.4068C151.156 66.4068 150.961 66.4648 150.966 66.4965Z" fill="#FF9A6C"/>
<path d="M114.254 144.046H108.466V174.997H114.254V144.046Z" fill="#B4B4B4"/>
<path d="M132.062 139.066C131.967 139.066 114.254 144.627 114.254 144.627H108.466L88.1582 139.066H132.062Z" fill="#E0E0E0"/>
<path d="M135.934 185.976C135.934 185.976 133.259 177.804 129.566 175.825C123.635 172.649 109.965 171.129 109.965 171.129L108.466 174.997C108.466 174.997 126.696 175.714 129.566 179.392C132.215 182.79 134.146 185.976 134.146 185.976H135.934Z" fill="#E0E0E0"/>
<path d="M133.671 191.369C135.809 191.369 137.543 189.635 137.543 187.496C137.543 185.357 135.809 183.623 133.671 183.623C131.532 183.623 129.798 185.357 129.798 187.496C129.798 189.635 131.532 191.369 133.671 191.369Z" fill="black"/>
<path d="M86.5225 185.818C86.5225 185.818 89.1975 177.645 92.8909 175.667C98.8213 172.49 112.492 170.971 112.492 170.971L113.99 174.838C113.99 174.838 95.7611 175.556 92.8909 179.233C90.2422 182.631 88.3111 185.818 88.3111 185.818H86.5225Z" fill="#B4B4B4"/>
<path d="M87.5778 191.369C89.7167 191.369 91.4506 189.635 91.4506 187.496C91.4506 185.357 89.7167 183.623 87.5778 183.623C85.439 183.623 83.7051 185.357 83.7051 187.496C83.7051 189.635 85.439 191.369 87.5778 191.369Z" fill="black"/>
<path d="M113.357 173.203L112.508 183.718L110.118 184.193V173.203" fill="#B4B4B4"/>
<path d="M111.115 191.369C113.254 191.369 114.988 189.635 114.988 187.496C114.988 185.357 113.254 183.623 111.115 183.623C108.976 183.623 107.242 185.357 107.242 187.496C107.242 189.635 108.976 191.369 111.115 191.369Z" fill="black"/>
<path d="M111.363 144.864C112.887 144.864 114.122 144.81 114.122 144.743C114.122 144.676 112.887 144.621 111.363 144.621C109.839 144.621 108.604 144.676 108.604 144.743C108.604 144.81 109.839 144.864 111.363 144.864Z" fill="#263238"/>
<path d="M108.493 171.783C108.451 171.826 109.627 172.517 111.263 172.548C112.893 172.601 114.107 171.973 114.07 171.926C114.049 171.852 112.84 172.353 111.273 172.306C109.701 172.279 108.519 171.71 108.493 171.783Z" fill="#263238"/>
<path d="M116.281 54.8308H89.1239C82.4125 54.8308 76.978 60.2706 76.978 66.9767V126.936C76.978 130.291 79.6953 133.008 83.051 133.008H122.353C125.709 133.008 128.426 130.291 128.426 126.936V66.9819C128.426 60.2706 122.987 54.8308 116.281 54.8308Z" fill="black"/>
<path d="M135.143 139.066H80.1595C78.4025 139.066 76.9727 137.641 76.9727 135.879V134.839C76.9727 133.082 78.3972 131.652 80.1595 131.652H135.143C136.9 131.652 138.33 133.077 138.33 134.839V135.879C138.33 137.636 136.9 139.066 135.143 139.066Z" fill="black"/>
<path d="M129.518 131.615C129.518 131.542 118.196 131.478 104.235 131.478C90.2687 131.478 78.9512 131.536 78.9512 131.615C78.9512 131.689 90.2687 131.753 104.235 131.753C118.201 131.747 129.518 131.689 129.518 131.615Z" fill="#263238"/>
<path d="M143.463 170.908L140.567 181.613C140.567 181.613 150.175 188.235 149.826 190.266L129.444 185.238L133.291 168.37L143.463 170.908Z" fill="#55ABFF"/>
<path d="M134.472 179.154C134.05 179.17 133.67 179.555 133.67 179.988C133.665 180.421 134.045 180.822 134.467 180.816C134.889 180.811 135.359 180.357 135.311 179.93C135.264 179.502 134.794 179.054 134.388 179.165" fill="#E0E0E0"/>
<path d="M129.444 185.243L129.898 183.56L149.272 189.01C149.272 189.01 150.085 189.638 149.832 190.271L129.444 185.243Z" fill="#263238"/>
<path d="M140.92 181.592C140.894 181.692 140.382 181.618 139.817 181.824C139.248 182.019 138.889 182.399 138.81 182.336C138.72 182.294 139.015 181.718 139.701 181.476C140.392 181.233 140.968 181.502 140.92 181.592Z" fill="white"/>
<path d="M142.846 183.027C142.846 183.133 142.376 183.201 141.933 183.549C141.484 183.887 141.289 184.335 141.189 184.304C141.094 184.299 141.163 183.681 141.717 183.254C142.271 182.827 142.867 182.927 142.846 183.027Z" fill="white"/>
<path d="M143.448 185.961C143.353 185.961 143.331 185.412 143.717 184.916C144.102 184.415 144.619 184.309 144.64 184.404C144.677 184.504 144.302 184.726 143.991 185.143C143.68 185.549 143.548 185.971 143.448 185.961Z" fill="white"/>
<path d="M141.316 179.075C141.253 179.16 140.83 178.906 140.255 178.806C139.685 178.695 139.2 178.78 139.168 178.679C139.126 178.59 139.643 178.315 140.313 178.447C140.994 178.569 141.384 179.007 141.316 179.075Z" fill="white"/>
<path d="M125.519 177.698L127.671 190.957L132.314 200.94C132.647 201.657 132.32 202.517 131.602 202.813C131.201 202.976 130.747 202.934 130.383 202.691C128.067 201.14 119.736 195.263 119.562 194.566C119.287 193.463 116.291 180.589 116.291 180.589L125.519 177.698Z" fill="#55ABFF"/>
<path d="M131.602 202.813L119.298 193.527L119.403 194.086C119.556 194.645 119.746 195.004 120.116 195.315C121.113 196.144 123.92 198.36 130.346 202.697C130.716 202.95 131.19 202.997 131.602 202.813Z" fill="#263238"/>
<g opacity="0.6">
<path d="M121.139 188.752C121.504 188.915 121.699 189.395 121.556 189.78C121.409 190.16 120.939 190.371 120.57 190.213C120.2 190.055 119.947 189.485 120.137 189.126C120.322 188.762 120.891 188.546 121.213 188.794" fill="white"/>
</g>
<path d="M127.597 197.621C127.676 197.642 127.84 196.893 128.531 196.376C129.212 195.832 129.956 195.88 129.956 195.795C129.961 195.758 129.782 195.69 129.47 195.706C129.164 195.722 128.737 195.848 128.357 196.138C127.977 196.434 127.74 196.819 127.645 197.12C127.544 197.415 127.56 197.616 127.597 197.621Z" fill="white"/>
<path d="M128.837 199.209C128.911 199.251 129.243 198.745 129.871 198.418C130.494 198.08 131.09 198.091 131.095 198.006C131.122 197.932 130.452 197.774 129.739 198.154C129.027 198.534 128.763 199.188 128.837 199.209Z" fill="white"/>
<path d="M125.476 195.685C125.55 195.737 126.057 194.946 126.991 194.355C127.914 193.743 128.827 193.611 128.811 193.527C128.816 193.453 127.83 193.458 126.838 194.107C125.835 194.745 125.408 195.658 125.476 195.685Z" fill="white"/>
<path d="M124.495 191.712C124.542 191.785 125.197 191.342 126.115 191.126C127.027 190.899 127.803 190.994 127.819 190.91C127.84 190.836 127.033 190.598 126.051 190.841C125.059 191.073 124.442 191.659 124.495 191.712Z" fill="white"/>
<path d="M123.767 187.834C123.819 187.902 124.453 187.322 125.434 187.179C126.415 187.01 127.186 187.369 127.217 187.285C127.233 187.253 127.064 187.116 126.732 186.995C126.405 186.879 125.914 186.799 125.387 186.884C124.859 186.968 124.416 187.19 124.136 187.406C123.862 187.623 123.74 187.807 123.767 187.834Z" fill="white"/>
<path d="M125.276 186.446C125.292 186.441 125.287 186.261 125.202 185.945C125.113 185.628 124.939 185.18 124.574 184.71C124.39 184.494 124.189 184.204 123.799 184.103C123.604 184.051 123.345 184.135 123.224 184.341C123.102 184.541 123.097 184.768 123.129 184.979C123.298 185.813 124.147 186.488 125.086 186.43C126.025 186.356 126.759 185.649 126.991 184.853C127.038 184.647 127.049 184.409 126.907 184.204C126.769 183.998 126.49 183.961 126.31 184.029C125.941 184.161 125.74 184.436 125.551 184.647C125.176 185.101 124.975 185.538 124.865 185.844C124.754 186.15 124.738 186.335 124.754 186.34C124.807 186.367 124.96 185.628 125.704 184.789C125.893 184.594 126.11 184.346 126.379 184.267C126.511 184.225 126.637 184.262 126.706 184.362C126.775 184.457 126.78 184.631 126.738 184.789C126.537 185.443 125.867 186.082 125.07 186.135C124.279 186.193 123.535 185.597 123.393 184.926C123.361 184.763 123.371 184.594 123.44 184.478C123.503 184.367 123.625 184.314 123.757 184.341C124.026 184.394 124.242 184.642 124.427 184.842C125.139 185.707 125.223 186.467 125.276 186.446Z" fill="white"/>
<path d="M130.178 114.621C134.061 116.705 149.198 125.432 153.256 128.075C156.231 130.012 158.057 135.261 157.113 138.538C153.182 152.135 142.002 179.729 142.002 179.729L129.122 178.11L138.124 139.593L119.931 131.04L102.171 113.407L130.178 114.621Z" fill="#222222"/>
<path d="M108.92 115.439C108.92 115.439 125.092 134.354 125.429 138.253C125.883 143.503 130.178 189.928 130.178 189.928L116.692 191.96L106.335 144.03L93.6716 129.273L92.0571 121.1L93.8299 112.505L108.92 115.439Z" fill="#222222"/>
<path d="M113.304 121.105C113.299 121.105 113.336 121.163 113.41 121.264C113.494 121.374 113.605 121.522 113.742 121.707C114.048 122.102 114.481 122.672 115.04 123.395C116.169 124.857 117.805 126.972 119.794 129.605C120.791 130.924 121.873 132.37 123.007 133.948C123.566 134.739 124.157 135.557 124.685 136.433C124.965 136.855 125.049 137.356 125.149 137.878C125.25 138.395 125.318 138.934 125.392 139.472C125.914 143.798 126.241 148.594 126.658 153.612C126.875 156.124 127.08 158.577 127.281 160.941C127.508 163.304 127.729 165.589 127.94 167.763C128.363 172.105 128.748 176.02 129.07 179.313C129.402 182.589 129.666 185.243 129.856 187.095C129.951 188.002 130.03 188.709 130.083 189.211C130.109 189.443 130.13 189.622 130.146 189.759C130.162 189.881 130.172 189.944 130.178 189.944C130.183 189.944 130.183 189.881 130.172 189.754C130.162 189.617 130.151 189.432 130.135 189.2C130.093 188.699 130.035 187.987 129.961 187.079C129.792 185.222 129.555 182.568 129.265 179.291C128.959 175.999 128.595 172.084 128.194 167.742C127.988 165.568 127.777 163.283 127.55 160.92C127.349 158.551 127.144 156.102 126.933 153.591C126.511 148.568 126.178 143.782 125.64 139.44C125.566 138.897 125.498 138.364 125.392 137.836C125.35 137.572 125.286 137.314 125.218 137.05C125.149 136.791 125.033 136.517 124.891 136.311C124.347 135.42 123.756 134.607 123.192 133.816C122.052 132.243 120.955 130.803 119.952 129.489C117.942 126.867 116.28 124.778 115.13 123.332C114.56 122.625 114.106 122.066 113.795 121.675C113.647 121.496 113.531 121.359 113.441 121.248C113.352 121.148 113.309 121.1 113.304 121.105Z" fill="#455A64"/>
<path d="M140.376 137.83C141.767 136.519 142.853 135.411 142.801 135.356C142.749 135.301 141.579 136.319 140.188 137.63C138.797 138.941 137.711 140.048 137.763 140.103C137.815 140.159 138.985 139.141 140.376 137.83Z" fill="#455A64"/>
<path d="M118.549 66.4278C118.549 66.4278 122.739 66.813 124.559 69.2928C126.696 72.2053 136.605 85.4486 136.605 85.4486L143.896 73.5454L151.447 77.339C151.447 77.339 144.424 95.7161 141.664 97.3201C138.905 98.924 135.249 99.0929 133.597 97.3201C131.94 95.5473 122.823 83.5808 122.823 83.5808L118.549 66.4278Z" fill="#55ABFF"/>
<path d="M129.281 114.273L112.307 65.9741L110.007 63.1355L97.2544 61.4893L95.0806 67.5939L102.172 114.658L129.281 114.273Z" fill="#FAFAFA"/>
<path d="M113.864 103.451C113.874 103.451 113.874 103.346 113.874 103.145C113.869 102.913 113.859 102.623 113.848 102.269C113.837 101.889 113.806 101.42 113.764 100.882C113.727 100.338 113.674 99.7261 113.6 99.0507C113.331 96.3335 112.751 92.6085 111.917 88.5352C111.083 84.4567 110.181 80.8003 109.5 78.1622C109.163 76.8431 108.873 75.7773 108.672 75.0439C108.572 74.701 108.493 74.4213 108.429 74.1997C108.371 74.0098 108.334 73.9095 108.329 73.9095C108.324 73.9095 108.34 74.0151 108.377 74.2103C108.429 74.4372 108.493 74.7168 108.572 75.065C108.756 75.8406 109.01 76.9064 109.321 78.2044C109.954 80.853 110.825 84.5147 111.658 88.588C112.492 92.6559 113.099 96.3704 113.415 99.0718C113.505 99.7472 113.568 100.359 113.616 100.897C113.674 101.436 113.721 101.9 113.743 102.28C113.774 102.633 113.801 102.923 113.822 103.156C113.843 103.346 113.853 103.451 113.864 103.451Z" fill="#263238"/>
<path d="M129.645 107.545C129.645 107.044 123.894 72.6274 123.894 72.6274L122.981 69.9471C122.19 68.0318 120.538 66.6125 118.528 66.1219L112.592 64.6709L110.086 62.7292L109.98 63.9006L112.597 72.4164L123.35 107.63L129.645 107.545Z" fill="#55ABFF"/>
<path d="M103.95 106.611C103.95 105.614 104.884 98.2065 104.256 92.3182C103.792 87.9706 102.546 80.5364 101.618 75.2497C100.911 71.2292 99.6708 67.3195 97.9244 63.6314L96.8586 61.3785L94.6425 64.9136L85.0557 68.7072L88.6699 106.611H103.95Z" fill="#55ABFF"/>
<path d="M85.0556 107.735L79.7847 126.772L101.201 132.655L102.947 105.973L85.0556 107.735Z" fill="#222222"/>
<path d="M85.0558 107.735C85.0505 107.735 85.04 107.762 85.0189 107.825C84.9977 107.894 84.9714 107.983 84.9344 108.089C84.8606 108.337 84.7603 108.68 84.6284 109.118C84.3646 110.036 83.99 111.35 83.5151 113.012C82.5707 116.373 81.2411 121.126 79.6635 126.746L79.6318 126.862L79.7479 126.893C83.9794 128.059 88.765 129.378 93.8143 130.771C96.3469 131.468 98.8109 132.143 101.154 132.787L101.312 132.829L101.322 132.665C101.802 125.031 102.225 118.367 102.525 113.587C102.663 111.218 102.773 109.323 102.852 107.994C102.884 107.355 102.91 106.849 102.926 106.495C102.932 106.337 102.937 106.205 102.942 106.105C102.942 106.015 102.942 105.973 102.937 105.973C102.932 105.973 102.926 106.015 102.916 106.105C102.905 106.205 102.895 106.332 102.879 106.49C102.852 106.849 102.81 107.35 102.757 107.989C102.663 109.313 102.525 111.207 102.351 113.576C102.024 118.351 101.57 125.015 101.053 132.644L101.217 132.528C98.8742 131.885 96.4102 131.204 93.8776 130.507C88.823 129.125 84.0375 127.811 79.8007 126.656L79.8851 126.804C81.4258 121.174 82.7237 116.415 83.6418 113.043C84.0902 111.376 84.4437 110.057 84.6865 109.134C84.8025 108.69 84.8922 108.347 84.9555 108.094C84.9819 107.983 85.003 107.899 85.0189 107.825C85.0558 107.767 85.0611 107.735 85.0558 107.735Z" fill="#222222"/>
<path d="M106.704 98.7763L89.894 97.4889L89.4033 79.2016L85.5886 68.4908C85.5886 68.4908 79.6687 70.6488 79.5262 77.8139C79.3838 84.979 79.1938 100.206 80.4548 104.707C80.5023 104.865 80.5498 105.023 80.6026 105.176C81.7317 108.49 85.1507 110.458 88.6224 109.994L108.187 107.366L106.704 98.7763Z" fill="#55ABFF"/>
<path d="M89.1713 80.1776C89.1608 80.1776 89.1555 80.299 89.1608 80.5259C89.166 80.7791 89.1713 81.1115 89.1766 81.5231C89.203 82.42 89.2399 83.6652 89.2874 85.1848C89.4087 88.303 89.5723 92.5609 89.7517 97.2673C89.757 97.3465 89.757 97.4256 89.7622 97.4995L89.7675 97.6208L89.8889 97.6314C94.532 97.9902 98.7213 98.3173 101.787 98.5547C103.285 98.6602 104.504 98.7447 105.385 98.8027C105.786 98.8238 106.113 98.8449 106.367 98.8555C106.588 98.866 106.709 98.866 106.709 98.8555C106.709 98.8449 106.593 98.8291 106.372 98.8027C106.124 98.7763 105.797 98.7394 105.396 98.6972C104.515 98.6127 103.296 98.502 101.803 98.3648C98.7371 98.1062 94.5478 97.7527 89.91 97.3623L90.0313 97.4889C90.0261 97.4151 90.0261 97.3359 90.0208 97.2568C89.8097 92.5557 89.6198 88.2977 89.4773 85.1795C89.3982 83.6599 89.3296 82.4148 89.2821 81.5178C89.2557 81.1063 89.2346 80.7791 89.2135 80.5259C89.1977 80.2937 89.1819 80.1776 89.1713 80.1776Z" fill="#55ABFF"/>
<path d="M85.5938 69.6516C85.5252 69.7097 86.9075 70.976 87.8467 73.0284C88.8123 75.0703 88.8914 76.9434 88.9811 76.9275C89.0128 76.9275 89.0339 76.4632 88.9283 75.7193C88.8281 74.9753 88.5696 73.9623 88.0894 72.9176C87.604 71.8782 86.9867 71.0287 86.4854 70.4694C85.9842 69.9102 85.6096 69.6305 85.5938 69.6516Z" fill="#55ABFF"/>
<path d="M94.4156 65.5204C94.4051 65.5204 94.4104 65.6206 94.4262 65.8158C94.442 66.011 94.4579 66.296 94.5053 66.66C94.5845 67.3934 94.7217 68.4539 94.9591 69.7624C95.4234 72.3794 96.3256 75.9831 97.8979 79.8242L97.9402 79.9244L98.0457 79.9033C98.4678 79.8242 98.9215 79.745 99.3753 79.6606C99.5916 79.6184 99.8132 79.5815 100.014 79.5445L99.8871 79.3229C99.2064 80.1355 98.4836 81.0219 98.3834 82.1088C98.3306 82.6417 98.4678 83.1587 98.6472 83.6178C98.8318 84.0768 99.0429 84.4989 99.2381 84.921C100.024 86.5883 100.731 88.092 101.327 89.3636C101.918 90.5982 102.399 91.606 102.752 92.3394C102.916 92.6665 103.048 92.9303 103.148 93.1413C103.243 93.3207 103.296 93.4157 103.301 93.4104C103.311 93.4052 103.274 93.3049 103.195 93.115C103.106 92.9039 102.984 92.6296 102.842 92.2919C102.509 91.5532 102.056 90.5296 101.496 89.2792C100.916 88.0023 100.225 86.488 99.4597 84.8102C99.1009 83.966 98.5469 83.0954 98.6419 82.1246C98.7316 81.1485 99.4069 80.299 100.093 79.4918L100.336 79.2069L99.9662 79.2755C99.7657 79.3124 99.5494 79.3493 99.3278 79.3915C98.874 79.476 98.4203 79.5551 97.9982 79.6342L98.1459 79.7134C96.5736 75.8934 95.645 72.3161 95.1385 69.7149C94.88 68.417 94.7111 67.3618 94.6056 66.6336C94.5528 66.2907 94.5159 66.0163 94.479 65.7947C94.4473 65.6206 94.4262 65.5204 94.4156 65.5204Z" fill="#55ABFF"/>
<path d="M119.462 90.9464C119.473 90.9464 119.478 90.8515 119.483 90.6668C119.488 90.4821 119.494 90.2131 119.494 89.8701C119.483 89.1789 119.446 88.1764 119.325 86.9418C119.098 84.4725 118.486 81.101 117.61 77.4288C117.172 75.5927 116.771 73.841 116.328 72.2634C115.89 70.6858 115.394 69.2876 114.877 68.1585C114.365 67.0241 113.838 66.1641 113.437 65.5995C113.241 65.3146 113.067 65.1035 112.957 64.9611C112.84 64.8186 112.777 64.75 112.772 64.7553C112.751 64.7711 112.983 65.0719 113.352 65.6575C113.722 66.2379 114.223 67.1032 114.708 68.2323C115.199 69.3615 115.668 70.7544 116.096 72.3267C116.523 73.899 116.919 75.656 117.352 77.4868C118.222 81.1538 118.866 84.5042 119.14 86.9576C119.283 88.1817 119.351 89.1789 119.393 89.8701C119.409 90.192 119.425 90.4505 119.436 90.6668C119.446 90.8462 119.457 90.9464 119.462 90.9464Z" fill="#55ABFF"/>
<path d="M85.5202 101.325C85.5941 101.367 86.1164 100 87.4671 98.9135C88.802 97.8002 90.2424 97.5575 90.216 97.4784C90.2108 97.4467 89.852 97.4626 89.2927 97.6314C88.7334 97.795 87.9895 98.1432 87.2983 98.7078C86.6071 99.2776 86.1217 99.9371 85.8526 100.454C85.5783 100.961 85.4886 101.314 85.5202 101.325Z" fill="#55ABFF"/>
<path d="M107.633 74.97L109.063 108.595L113.305 116.299L116.133 107.408L109.29 74.6746L107.633 74.97Z" fill="black"/>
<path d="M143.516 86.0184C143.453 86.2084 131.698 111.856 131.698 111.856H109.97L119.531 87.6224C119.531 87.6224 126.97 88.588 133.581 88.0392C138.863 87.6013 143.516 86.0184 143.516 86.0184Z" fill="#F5FAFF"/>
<path d="M143.516 86.0184C143.511 86.0184 143.485 86.0395 143.411 86.0606C143.332 86.087 143.226 86.124 143.099 86.1714C142.82 86.2611 142.408 86.3983 141.86 86.5513C140.767 86.8626 139.153 87.2847 137.063 87.6541C132.885 88.4508 126.759 88.5457 119.515 87.7332L119.641 87.6593C116.893 94.645 113.627 102.95 110.128 111.83L110.102 111.898L109.975 111.708C117.8 111.714 125.203 111.719 131.703 111.724L131.592 111.798C138.609 96.6289 143.063 86.9945 143.516 86.0184C143.073 86.9998 138.699 96.6764 131.814 111.909L131.782 111.983H131.703C125.197 111.988 117.8 111.993 109.975 111.999H109.775L109.849 111.809L109.875 111.735C113.384 102.86 116.666 94.5606 119.425 87.5802L119.457 87.4958L119.546 87.5063C126.77 88.34 132.879 88.2766 137.042 87.5222C139.132 87.1739 140.746 86.7729 141.838 86.4827C142.377 86.335 142.793 86.2189 143.084 86.1345C143.216 86.0976 143.321 86.0659 143.4 86.0448C143.479 86.0237 143.522 86.0132 143.516 86.0184Z" fill="#263238"/>
<path d="M106.683 98.9452L108.166 99.0349C108.166 99.0349 113.057 94.4815 113.764 94.4815C114.471 94.4815 116.592 95.0883 116.592 95.0883L115.996 96.6026C115.996 96.6026 119.599 96.4126 120.691 96.6026C121.784 96.7978 123.066 97.3729 122.617 98.7183C122.617 98.7183 123.514 100.196 121.657 100.897C121.657 100.897 122.1 101.684 121.008 102.396C120.85 102.496 120.665 102.596 120.438 102.697C118.644 103.467 118.771 103.62 118.771 103.62C118.771 103.62 118.708 104.427 118.064 105.071C117.42 105.715 113.806 107.092 111.833 107.171C109.859 107.25 108.06 106.675 108.06 106.675L106.683 98.9452Z" fill="#FFBF9D"/>
<path d="M111.843 96.5867C111.843 96.6606 112.798 96.7186 113.97 96.7186C115.141 96.7186 116.096 96.6553 116.096 96.5814C116.096 96.5076 115.146 96.4495 113.97 96.4495C112.793 96.4495 111.843 96.5128 111.843 96.5867Z" fill="#FF9A6C"/>
<path d="M112.782 99.3936C112.788 99.4306 113.331 99.3989 114.212 99.3409C115.183 99.2776 116.354 99.1984 117.647 99.1087C118.945 99.0401 120.116 98.9821 121.082 98.9293C121.963 98.8871 122.506 98.8555 122.506 98.8132C122.506 98.7763 121.963 98.7447 121.076 98.7394C120.195 98.7341 118.971 98.7605 117.626 98.8396C116.28 98.9188 115.067 99.0401 114.191 99.1509C113.315 99.2617 112.777 99.3567 112.782 99.3936Z" fill="#FF9A6C"/>
<path d="M118.323 101.349C116.387 101.623 114.826 101.906 114.837 101.981C114.848 102.056 116.425 101.895 118.361 101.621C120.297 101.347 121.858 101.064 121.847 100.989C121.837 100.914 120.259 101.075 118.323 101.349Z" fill="#FF9A6C"/>
<path d="M115.22 104.116C115.22 104.19 116.07 104.206 117.093 104.031C118.117 103.857 118.908 103.557 118.887 103.488C118.866 103.414 118.054 103.594 117.046 103.768C116.043 103.936 115.22 104.042 115.22 104.116Z" fill="#FF9A6C"/>
<g opacity="0.3">
<path d="M133.143 116.304L138.351 119.29L81.2095 121.628L82.6868 116.299L133.143 116.304Z" fill="black"/>
</g>
<path d="M107.633 74.97L106.456 73.4768L107.332 70.9601H108.709L109.822 73.2499L109.289 74.6745L107.633 74.97Z" fill="black"/>
<path d="M112.276 70.5802C112.287 70.5802 112.271 70.6805 112.228 70.8599C112.181 71.0393 112.102 71.3031 111.954 71.6249C111.669 72.2634 111.099 73.1603 110.071 73.8779L109.954 73.957L109.907 73.8198C109.685 73.2025 109.443 72.5166 109.094 71.836C108.746 71.1606 108.266 70.48 107.564 70.0157L107.77 69.9365C107.643 70.3903 107.506 70.8599 107.353 71.3347C106.958 72.5799 106.509 73.7513 106.05 74.7959L105.987 74.9437L105.86 74.8487C104.346 73.7249 103.148 72.638 102.346 71.836C101.945 71.435 101.634 71.1079 101.428 70.8757C101.222 70.6436 101.122 70.5169 101.133 70.5064C101.143 70.4958 101.27 70.6066 101.491 70.8177C101.75 71.0604 102.066 71.3611 102.457 71.7252C103.291 72.4902 104.499 73.5455 106.013 74.6482L105.818 74.701C106.256 73.6563 106.699 72.4955 107.095 71.2556C107.248 70.7807 107.385 70.3112 107.512 69.868L107.564 69.6886L107.717 69.7941C108.472 70.2953 108.968 71.0234 109.321 71.7252C109.675 72.4322 109.907 73.1287 110.118 73.7513L109.954 73.6985C110.957 73.0284 111.537 72.1789 111.849 71.5722C112.16 70.9549 112.244 70.5697 112.276 70.5802Z" fill="#263238"/>
<path d="M113.352 31.1141C111.22 30.7131 109.279 32.7972 107.115 32.6178C105.802 32.507 104.72 31.589 103.501 31.0772C101.686 30.3121 99.2539 30.4282 97.6024 31.5098C95.9563 32.5915 94.938 33.6625 94.9116 35.6306C93.2232 34.8972 90.7908 37.1923 90.1049 39.2237C89.419 41.255 89.8675 43.223 90.6115 45.2333C91.8883 48.6945 93.8563 51.9024 96.3625 54.6144C96.5841 54.8518 96.9218 55.1104 97.2014 54.9362C97.3967 54.8202 97.4336 54.5564 97.4442 54.3295C97.5391 52.4037 97.0801 50.4989 96.7055 48.6101C96.3309 46.7212 96.0301 44.7637 96.4311 42.8748C96.8321 40.9912 98.0668 39.1709 99.9082 38.5905C101.264 38.1632 102.757 38.4533 104.071 39.0073C105.38 39.5613 106.572 40.3686 107.833 41.0281C109.094 41.6877 110.487 42.2047 111.912 42.1098C113.331 42.0148 114.777 41.1759 115.236 39.8304C115.695 38.485 114.819 36.7386 113.399 36.6014C114.655 36.3429 115.647 35.1188 115.637 33.8367C115.621 32.5545 114.613 31.3516 113.352 31.1141Z" fill="black"/>
<path d="M114.581 53.8652C114.228 51.2535 113.067 45.9298 111.959 41.1284C110.767 35.963 105.812 32.5757 100.562 33.346L100.04 33.4252C94.4683 34.5806 93.0227 40.0785 94.3312 45.6132L97.1909 62.0961L107.585 69.9155L110.381 65.1141L110.181 60.8668C110.186 60.8562 115.309 59.2733 114.581 53.8652Z" fill="#FFBF9D"/>
<path d="M110.186 60.8562C110.186 60.8562 106.662 61.6846 102.699 59.9381C102.699 59.9381 104.931 63.4838 110.249 62.2016L110.186 60.8562Z" fill="#FF9A6C"/>
<path d="M111.057 46.4363C111.131 46.8426 110.851 47.2383 110.429 47.3227C110.007 47.4071 109.606 47.1486 109.532 46.7423C109.458 46.336 109.738 45.9403 110.16 45.8559C110.577 45.7715 110.983 46.0353 111.057 46.4363Z" fill="black"/>
<path d="M111.189 43.9354C111.109 44.0514 110.46 43.7032 109.632 43.8298C108.804 43.9406 108.255 44.4577 108.149 44.368C108.097 44.3311 108.171 44.1359 108.408 43.9037C108.64 43.6716 109.057 43.4183 109.574 43.3444C110.091 43.2706 110.555 43.3972 110.835 43.5555C111.115 43.7138 111.231 43.8826 111.189 43.9354Z" fill="black"/>
<path d="M103.422 47.7712C103.496 48.1774 103.216 48.5731 102.794 48.6576C102.372 48.742 101.971 48.4834 101.897 48.0772C101.823 47.6709 102.103 47.2752 102.525 47.1908C102.942 47.1063 103.348 47.3702 103.422 47.7712Z" fill="black"/>
<path d="M103.053 45.2913C102.974 45.4074 102.325 45.0591 101.496 45.1858C100.668 45.2966 100.119 45.8136 100.014 45.7239C99.961 45.687 100.035 45.4918 100.272 45.2596C100.504 45.0275 100.921 44.7742 101.438 44.7004C101.955 44.6265 102.42 44.7531 102.699 44.9114C102.979 45.0697 103.09 45.2385 103.053 45.2913Z" fill="black"/>
<path d="M106.968 51.0055C106.957 50.958 107.458 50.7944 108.281 50.5623C108.492 50.5095 108.682 50.4357 108.698 50.2879C108.725 50.1296 108.603 49.9133 108.466 49.6812C108.192 49.1957 107.901 48.6892 107.601 48.1616C106.392 45.9931 105.485 44.1939 105.569 44.1464C105.659 44.0989 106.709 45.819 107.917 47.9875C108.208 48.5257 108.487 49.0322 108.756 49.5229C108.872 49.7497 109.052 50.003 108.988 50.3407C108.957 50.5095 108.814 50.6467 108.688 50.6995C108.556 50.7628 108.44 50.7786 108.334 50.805C107.5 50.9686 106.978 51.0477 106.968 51.0055Z" fill="black"/>
<path d="M102.509 41.0229C102.462 41.2603 101.618 41.2761 100.657 41.5347C99.697 41.7774 98.9531 42.1784 98.7948 41.9937C98.7209 41.904 98.8264 41.6718 99.1114 41.408C99.3963 41.1442 99.8659 40.8646 100.441 40.7116C101.016 40.5638 101.565 40.5744 101.939 40.6694C102.325 40.7643 102.53 40.9121 102.509 41.0229Z" fill="black"/>
<path d="M110.529 41.5769C110.413 41.7879 109.812 41.6771 109.121 41.7668C108.429 41.8354 107.87 42.0781 107.706 41.904C107.633 41.8143 107.696 41.6138 107.928 41.3975C108.155 41.1812 108.551 40.9754 109.026 40.9226C109.5 40.8699 109.933 40.9807 110.202 41.139C110.471 41.292 110.582 41.4766 110.529 41.5769Z" fill="black"/>
<path d="M95.1016 49.3277C95.0014 49.3013 90.8068 48.8686 91.4663 52.5461C92.1258 56.2237 95.9616 54.989 95.9616 54.989L95.1016 49.3277Z" fill="#FFBF9D"/>
<path d="M94.294 53.5011C94.2782 53.4905 94.236 53.5591 94.141 53.6277C94.0461 53.6963 93.8667 53.7596 93.6662 53.7227C93.2546 53.6488 92.8167 53.0948 92.6795 52.4353C92.6109 52.1029 92.6215 51.7705 92.6953 51.4856C92.7587 51.1954 92.9011 50.9791 93.0911 50.9052C93.2757 50.826 93.4393 50.9157 93.5026 51.0107C93.5712 51.1057 93.5606 51.1796 93.5817 51.1848C93.5923 51.1901 93.6503 51.111 93.5923 50.9632C93.5659 50.8946 93.5026 50.8155 93.4076 50.7575C93.3074 50.6994 93.1702 50.6889 93.0383 50.7258C92.7587 50.7944 92.5529 51.1004 92.4737 51.417C92.3788 51.7336 92.3577 52.1082 92.4368 52.4828C92.5951 53.2215 93.0963 53.844 93.6556 53.9021C93.9247 53.9232 94.1305 53.8071 94.2254 53.7016C94.3046 53.5908 94.3099 53.5064 94.294 53.5011Z" fill="#FF9A6C"/>
<path d="M111.284 36.0738C110.645 35.0819 109.664 34.359 108.63 33.7945C106.403 32.5757 103.802 31.9953 101.285 32.3277C98.7685 32.6601 96.3573 33.9317 94.7956 35.9366C93.5451 37.5406 92.875 39.5508 92.722 41.5769C92.569 43.603 92.7537 46.2727 93.4026 48.1985C93.6875 49.0427 94.2204 49.2854 94.9222 49.8342C95.3601 50.1771 96.0566 50.3407 96.4417 49.945C96.6686 49.7075 96.7161 49.354 96.7478 49.0322C97.0379 46.0775 97.2912 42.9118 95.8402 40.3212C96.4101 39.2976 97.1065 38.3215 98.0404 37.6092C98.9743 36.8969 100.172 36.4801 101.328 36.6595C103.048 36.9233 104.298 38.3742 105.775 39.2976C107.886 40.6113 110.651 40.8224 112.935 39.841L111.284 36.0738Z" fill="black"/>
<path d="M90.1685 43.9722C90.1685 43.93 90.5642 43.9195 91.1815 43.7876C91.7988 43.6557 92.6324 43.3655 93.4397 42.8378C94.2417 42.3049 94.8379 41.656 95.2072 41.1389C95.5766 40.6218 95.7401 40.2631 95.7771 40.2789C95.7982 40.2894 95.6874 40.6746 95.3444 41.2339C95.0067 41.7879 94.4053 42.4843 93.5716 43.0331C92.738 43.5818 91.8568 43.8562 91.2184 43.9511C90.5694 44.0461 90.1685 43.9986 90.1685 43.9722Z" fill="#E0E0E0"/>
<path d="M90.6011 45.0222C90.6011 44.98 90.9968 44.9695 91.6142 44.8376C92.2315 44.7056 93.0651 44.4155 93.8724 43.8878C94.6744 43.3549 95.2706 42.706 95.6346 42.1889C96.004 41.6718 96.1675 41.313 96.2045 41.3289C96.2256 41.3394 96.1148 41.7246 95.7718 42.2839C95.4341 42.8379 94.8327 43.5343 93.999 44.0831C93.1654 44.6318 92.2842 44.9061 91.6458 45.0011C91.0021 45.0961 90.5958 45.0433 90.6011 45.0222Z" fill="#E0E0E0"/>
<path d="M104.963 52.4934C104.963 52.4934 105.875 52.6622 106.683 52.9049L107.843 53.1687C107.712 53.6541 107.495 54.4403 107.073 54.7199C106.651 55.0049 105.875 55.1209 105.438 54.8255C105.089 54.5933 104.868 54.2345 104.746 53.7122C104.641 53.2584 104.963 52.4934 104.963 52.4934Z" fill="#FF9A6C"/>
<path d="M107.559 54.034C107.575 54.0393 107.569 54.1554 107.485 54.3506C107.443 54.4456 107.385 54.5616 107.295 54.683C107.247 54.7463 107.2 54.8096 107.126 54.8676C107.042 54.931 106.957 54.9626 106.862 54.9943C106.678 55.0523 106.472 55.0734 106.25 55.084C106.029 55.0945 105.775 55.0629 105.538 54.9626C105.295 54.8624 105.063 54.6988 104.899 54.4561C104.731 54.224 104.652 53.9021 104.662 53.6119C104.667 53.3164 104.731 53.0421 104.789 52.7888C104.805 52.7202 104.815 52.6675 104.841 52.583C104.857 52.5039 104.973 52.372 105.095 52.3826C105.206 52.3826 105.253 52.4142 105.316 52.4248L105.49 52.4722C105.923 52.5936 106.335 52.715 106.715 52.8205C107.411 53.0263 107.833 53.174 107.823 53.2109C107.812 53.2478 107.369 53.1687 106.662 53.0104C106.277 52.9207 105.86 52.8205 105.422 52.7202L105.248 52.678C105.19 52.6622 105.121 52.6464 105.105 52.6464C105.089 52.6253 105.1 52.6516 105.105 52.6464C105.105 52.6464 105.1 52.6569 105.089 52.678C105.079 52.715 105.063 52.7888 105.047 52.8521C104.994 53.1054 104.942 53.3639 104.936 53.6225C104.899 54.1395 105.232 54.5616 105.633 54.7305C106.029 54.9046 106.482 54.8676 106.809 54.8096C106.984 54.778 107.079 54.7041 107.174 54.5933C107.263 54.493 107.332 54.3928 107.39 54.3084C107.501 54.129 107.543 54.0287 107.559 54.034Z" fill="#263238"/>
<path d="M124.553 81.8603C125.099 85.3022 125.603 88.0828 125.678 88.0709C125.753 88.059 125.37 85.2591 124.824 81.8172C124.277 78.3753 123.773 75.5948 123.698 75.6067C123.623 75.6186 124.006 78.4184 124.553 81.8603Z" fill="#55ABFF"/>
<path d="M107.749 107.408C107.749 107.419 107.664 107.44 107.501 107.472C107.305 107.509 107.073 107.551 106.788 107.598C106.124 107.704 105.237 107.846 104.161 108.02C101.94 108.369 98.8688 108.822 95.4762 109.313C93.7772 109.556 92.1627 109.804 90.6801 109.951C89.1975 110.099 87.8467 110.136 86.7229 110.052C85.5938 109.973 84.6968 109.788 84.0901 109.614C83.7841 109.535 83.5572 109.445 83.3989 109.387C83.2459 109.329 83.1615 109.297 83.1667 109.287C83.1773 109.26 83.5044 109.371 84.1165 109.508C84.7232 109.651 85.6202 109.804 86.7335 109.856C87.8467 109.914 89.1816 109.862 90.6537 109.698C92.1258 109.54 93.7403 109.281 95.4339 109.044C98.8265 108.553 101.903 108.126 104.129 107.83C105.211 107.693 106.102 107.577 106.767 107.493C107.052 107.461 107.29 107.435 107.485 107.414C107.659 107.403 107.749 107.398 107.749 107.408Z" fill="#455A64"/>
<path d="M201.333 109.962H193.904C193.894 109.904 193.888 109.841 193.872 109.782L188.797 88.4244C188.538 87.3375 187.567 86.5671 186.449 86.5671H158.738C157.145 86.5671 155.989 88.0814 156.406 89.6115L162.21 110.97C162.431 111.793 162.854 112.642 163.888 112.753H164.542H191.525H203.686V112.31C203.681 111.012 202.631 109.962 201.333 109.962Z" fill="#E0E0E0"/>
<path d="M201.333 109.962C201.333 109.962 201.423 109.957 201.597 109.967C201.771 109.988 202.035 110.03 202.351 110.178C202.668 110.321 203.037 110.585 203.322 111.022C203.465 111.239 203.586 111.503 203.649 111.793C203.723 112.088 203.707 112.415 203.713 112.753V112.785H203.681C197.059 112.795 182.402 112.816 163.888 112.843H163.882H163.877C163.418 112.801 162.964 112.563 162.674 112.188C162.379 111.819 162.22 111.376 162.104 110.938C161.867 110.067 161.63 109.186 161.387 108.295C160.901 106.517 160.411 104.696 159.904 102.855C158.902 99.1615 157.862 95.3468 156.802 91.4529C156.696 91.0625 156.591 90.6668 156.48 90.2763C156.385 89.8859 156.237 89.5007 156.221 89.0734C156.184 88.2292 156.617 87.3955 157.298 86.9207C157.635 86.678 158.036 86.5302 158.453 86.4827C158.87 86.4511 159.255 86.4722 159.651 86.4669C160.442 86.4669 161.229 86.4669 162.009 86.4669C165.138 86.4669 168.198 86.4669 171.174 86.4722C174.145 86.4722 177.031 86.4775 179.817 86.4775C181.21 86.4775 182.576 86.4775 183.911 86.4827C184.581 86.4827 185.241 86.4827 185.895 86.4827C186.222 86.488 186.549 86.4616 186.887 86.525C187.219 86.5883 187.531 86.7149 187.81 86.8943C188.364 87.2583 188.76 87.844 188.886 88.4719C189.029 89.0787 189.171 89.6801 189.314 90.2763C189.593 91.4635 189.868 92.619 190.132 93.7375C190.659 95.9799 191.161 98.0957 191.625 100.058C192.548 103.989 193.35 107.324 193.941 109.957L193.899 109.92C196.315 109.93 198.173 109.936 199.428 109.941C200.051 109.946 200.526 109.951 200.848 109.951C201.17 109.951 201.333 109.962 201.333 109.962C201.333 109.962 201.17 109.967 200.853 109.972C200.531 109.972 200.056 109.978 199.434 109.983C198.178 109.988 196.321 109.994 193.904 110.004H193.867L193.857 109.967C193.229 107.345 192.432 104.01 191.498 100.085C191.029 98.1221 190.522 96.0116 189.989 93.7692C189.72 92.6454 189.446 91.4951 189.161 90.308C189.018 89.7171 188.876 89.1156 188.733 88.5088C188.607 87.9126 188.243 87.3744 187.726 87.0315C187.467 86.8626 187.172 86.7466 186.866 86.6885C186.56 86.6305 186.233 86.6569 185.905 86.6516C185.251 86.6516 184.586 86.6516 183.922 86.6516C182.581 86.6516 181.22 86.6516 179.827 86.6569C177.047 86.6569 174.161 86.6621 171.185 86.6621C168.214 86.6621 165.154 86.6621 162.02 86.6674C161.239 86.6674 160.453 86.6674 159.662 86.6674C159.271 86.6727 158.86 86.6516 158.485 86.6832C158.105 86.7255 157.736 86.8626 157.424 87.0842C156.797 87.5222 156.396 88.2872 156.432 89.0628C156.443 89.448 156.585 89.8279 156.686 90.2236C156.791 90.614 156.897 91.0045 157.008 91.4002C158.068 95.294 159.102 99.1087 160.105 102.802C160.606 104.649 161.097 106.464 161.582 108.247C161.825 109.139 162.062 110.02 162.3 110.891C162.416 111.318 162.569 111.74 162.833 112.072C163.096 112.41 163.487 112.616 163.909 112.658H163.898C182.418 112.684 197.07 112.706 203.692 112.716L203.66 112.748C203.66 112.405 203.676 112.088 203.607 111.803C203.544 111.513 203.433 111.26 203.296 111.044C203.016 110.616 202.657 110.352 202.351 110.205C201.708 109.914 201.328 109.983 201.333 109.962Z" fill="#263238"/>
<path d="M186.291 88.6776H158.469L163.993 108.432H191.06L186.291 88.6776Z" fill="white"/>
<path d="M191.076 108.442H163.983V108.432L158.448 88.6618H186.296V88.6723L191.076 108.442ZM164.004 108.416H191.039L186.275 88.6881H158.48L164.004 108.416Z" fill="#263238"/>
<path d="M194.173 110.015C194.173 110.067 187.615 110.115 179.532 110.115C171.443 110.115 164.885 110.073 164.885 110.015C164.885 109.962 171.438 109.914 179.532 109.914C187.62 109.914 194.173 109.962 194.173 110.015Z" fill="#263238"/>
<path d="M188.343 106.575C188.343 106.58 188.311 106.58 188.253 106.585C188.18 106.59 188.09 106.59 187.984 106.596C187.731 106.601 187.383 106.606 186.945 106.617C186.027 106.622 184.724 106.638 183.125 106.648C179.88 106.654 175.432 106.664 170.515 106.675C168.985 106.675 167.497 106.675 166.104 106.67H166.03L166.009 106.601C164.985 102.886 164.094 99.6574 163.45 97.3412C163.144 96.2015 162.896 95.2834 162.722 94.6345C162.643 94.3284 162.579 94.0857 162.537 93.9063C162.495 93.7428 162.479 93.6531 162.484 93.6531C162.49 93.6531 162.521 93.7375 162.569 93.8958C162.622 94.0752 162.695 94.3126 162.785 94.6134C162.975 95.257 163.239 96.1698 163.566 97.3042C164.226 99.6205 165.138 102.839 166.194 106.548L166.099 106.48C167.492 106.48 168.979 106.48 170.51 106.474C175.427 106.485 179.875 106.495 183.12 106.506C184.718 106.522 186.022 106.532 186.94 106.538C187.378 106.543 187.726 106.553 187.979 106.559C188.09 106.564 188.174 106.564 188.248 106.569C188.317 106.569 188.343 106.575 188.343 106.575Z" fill="#263238"/>
<path d="M169.75 99.7947H166.405L168.019 105.076H171.364L169.75 99.7947Z" fill="black"/>
<path d="M185.399 99.7947H182.054L183.673 105.076H187.019L185.399 99.7947Z" fill="#55ABFF"/>
<path d="M174.382 97.9427H171.037L173.121 105.076H176.466L174.382 97.9427Z" fill="#55ABFF"/>
<path d="M178.698 94.6398H175.353L178.587 105.076H181.927L178.698 94.6398Z" fill="black"/>
<path d="M211.822 118.304H206.14V191.337H211.822V118.304Z" fill="#C5C5C5"/>
<path d="M211.822 191.337C211.822 191.337 211.817 191.205 211.812 190.957C211.812 190.699 211.806 190.334 211.801 189.86C211.796 188.889 211.79 187.47 211.78 185.644C211.769 181.977 211.759 176.68 211.738 170.1C211.722 156.957 211.701 138.717 211.68 118.304L211.817 118.441C210.012 118.441 208.081 118.441 206.134 118.441H206.129L206.266 118.304C206.229 151.496 206.192 179.866 206.182 191.337L206.129 191.284C207.976 191.295 209.39 191.305 210.35 191.311C210.825 191.316 211.189 191.321 211.437 191.321C211.695 191.332 211.822 191.337 211.822 191.337C211.822 191.337 211.706 191.342 211.463 191.348C211.215 191.348 210.857 191.353 210.387 191.358C209.421 191.363 207.997 191.374 206.14 191.384H206.087V191.332C206.071 179.861 206.039 151.486 206.002 118.298V118.161H206.14H206.145C208.092 118.161 210.018 118.161 211.827 118.161H211.965V118.298C211.943 138.749 211.922 157.026 211.907 170.195C211.891 176.759 211.875 182.046 211.864 185.707C211.854 187.522 211.848 188.931 211.843 189.891C211.838 190.361 211.838 190.72 211.833 190.973C211.827 191.221 211.822 191.337 211.822 191.337Z" fill="#C5C5C5"/>
<path d="M59.5028 115.771H53.8203V191.332H59.5028V115.771Z" fill="#C5C5C5"/>
<path d="M59.5028 191.332C59.5028 191.332 59.4975 191.195 59.4922 190.936C59.4922 190.672 59.4869 190.292 59.4817 189.796C59.4764 188.794 59.4711 187.322 59.4606 185.433C59.45 181.639 59.4395 176.157 59.4184 169.351C59.4025 155.749 59.3814 136.881 59.3603 115.771L59.4975 115.908C57.693 115.908 55.7619 115.908 53.815 115.908H53.8097L53.9469 115.771C53.9047 150.241 53.8731 179.682 53.8572 191.332L53.8097 191.284C55.667 191.295 57.081 191.305 58.036 191.311C58.5108 191.316 58.8696 191.321 59.1229 191.321C59.3761 191.326 59.5028 191.332 59.5028 191.332C59.5028 191.332 59.3867 191.337 59.1493 191.342C58.9013 191.342 58.5425 191.348 58.0782 191.353C57.1126 191.358 55.6881 191.369 53.8203 191.379H53.7728V191.332C53.757 179.682 53.7253 150.241 53.6831 115.771V115.634H53.8203H53.8256C55.7725 115.634 57.7036 115.634 59.508 115.634H59.6452V115.771C59.6241 136.923 59.603 155.828 59.5872 169.451C59.5714 176.242 59.5555 181.718 59.545 185.502C59.5344 187.38 59.5292 188.836 59.5239 189.833C59.5186 190.319 59.5186 190.693 59.5133 190.952C59.508 191.21 59.5028 191.332 59.5028 191.332Z" fill="#C5C5C5"/>
<path d="M102.8 115.771H97.1172V191.369H102.8V115.771Z" fill="#C5C5C5"/>
<path d="M102.8 191.369C102.8 191.369 102.794 191.231 102.789 190.973C102.789 190.709 102.784 190.329 102.779 189.833C102.773 188.826 102.768 187.359 102.757 185.465C102.747 181.671 102.736 176.184 102.715 169.372C102.699 155.765 102.678 136.886 102.657 115.766L102.794 115.903C100.99 115.903 99.0588 115.903 97.1119 115.903H97.1066L97.2438 115.766C97.2016 150.256 97.1699 179.708 97.1541 191.363L97.1066 191.316C98.9638 191.326 100.378 191.337 101.333 191.342C101.808 191.348 102.167 191.353 102.414 191.353C102.673 191.358 102.8 191.369 102.8 191.369C102.8 191.369 102.684 191.374 102.446 191.379C102.198 191.379 101.845 191.385 101.375 191.39C100.41 191.395 98.9849 191.406 97.1172 191.416H97.0697V191.369C97.0539 179.714 97.0222 150.262 96.98 115.771V115.634H97.1172H97.1224C99.0694 115.634 101 115.634 102.805 115.634H102.942V115.771C102.921 136.934 102.9 155.844 102.884 169.478C102.868 176.273 102.852 181.75 102.842 185.538C102.831 187.417 102.826 188.878 102.821 189.876C102.815 190.361 102.815 190.736 102.81 190.994C102.805 191.242 102.8 191.369 102.8 191.369Z" fill="#C5C5C5"/>
<path d="M224.189 112.151H44.3232V121.364H224.189V112.151Z" fill="#7A7A7A"/>
<g opacity="0.3">
<path d="M93.3127 112.167H44.6079V121.343H93.3127V112.167Z" fill="black"/>
</g>
<path d="M91.477 99.0348H77.9541V104.364H91.477V99.0348Z" fill="#EBEBEB"/>
<path d="M92.0415 98.122H49.5732V99.2406H92.0415V98.122Z" fill="#626262"/>
<path d="M91.8463 104.126H49.5732V105.245H91.8463V104.126Z" fill="#626262"/>
<path d="M77.954 98.3911L77.8907 105.029H49.5732V98.3911H77.954Z" fill="#626262"/>
<path d="M72.6038 103.356C73.4489 103.356 74.1339 102.617 74.1339 101.704C74.1339 100.792 73.4489 100.053 72.6038 100.053C71.7588 100.053 71.0737 100.792 71.0737 101.704C71.0737 102.617 71.7588 103.356 72.6038 103.356Z" fill="#87C4FF"/>
<path d="M70.8364 101.705C70.8364 100.66 71.6279 99.8156 72.604 99.8156C73.5801 99.8156 74.3715 100.665 74.3715 101.705C74.3715 102.744 73.5801 103.593 72.604 103.593C71.6279 103.593 70.8364 102.744 70.8364 101.705ZM71.3113 101.705C71.3113 102.485 71.8917 103.119 72.604 103.119C73.3162 103.119 73.8966 102.485 73.8966 101.705C73.8966 100.924 73.3162 100.29 72.604 100.29C71.8917 100.285 71.3113 100.924 71.3113 101.705Z" fill="#E0E0E0"/>
<path d="M85.177 103.182C88.6038 103.182 91.3818 103.128 91.3818 103.061C91.3818 102.994 88.6038 102.939 85.177 102.939C81.7502 102.939 78.9722 102.994 78.9722 103.061C78.9722 103.128 81.7502 103.182 85.177 103.182Z" fill="#263238"/>
<path d="M85.177 102.253C88.6038 102.253 91.3818 102.199 91.3818 102.132C91.3818 102.065 88.6038 102.011 85.177 102.011C81.7502 102.011 78.9722 102.065 78.9722 102.132C78.9722 102.199 81.7502 102.253 85.177 102.253Z" fill="#263238"/>
<path d="M85.177 101.325C88.6038 101.325 91.3818 101.27 91.3818 101.203C91.3818 101.136 88.6038 101.082 85.177 101.082C81.7502 101.082 78.9722 101.136 78.9722 101.203C78.9722 101.27 81.7502 101.325 85.177 101.325Z" fill="#263238"/>
<path d="M85.177 100.396C88.6038 100.396 91.3818 100.342 91.3818 100.275C91.3818 100.208 88.6038 100.153 85.177 100.153C81.7502 100.153 78.9722 100.208 78.9722 100.275C78.9722 100.342 81.7502 100.396 85.177 100.396Z" fill="#263238"/>
<path d="M65.4756 99.7999H52.7124V103.356H65.4756V99.7999Z" fill="white"/>
<path d="M63.4866 102.992C63.5536 102.992 63.6079 102.359 63.6079 101.578C63.6079 100.797 63.5536 100.164 63.4866 100.164C63.4196 100.164 63.3652 100.797 63.3652 101.578C63.3652 102.359 63.4196 102.992 63.4866 102.992Z" fill="#E0E0E0"/>
<path d="M61.7981 102.992C61.8651 102.992 61.9195 102.359 61.9195 101.578C61.9195 100.797 61.8651 100.164 61.7981 100.164C61.7311 100.164 61.6768 100.797 61.6768 101.578C61.6768 102.359 61.7311 102.992 61.7981 102.992Z" fill="#E0E0E0"/>
<path d="M60.1096 102.992C60.1767 102.992 60.231 102.359 60.231 101.578C60.231 100.797 60.1767 100.164 60.1096 100.164C60.0426 100.164 59.9883 100.797 59.9883 101.578C59.9883 102.359 60.0426 102.992 60.1096 102.992Z" fill="#E0E0E0"/>
<path d="M58.4265 102.992C58.4935 102.992 58.5479 102.359 58.5479 101.578C58.5479 100.797 58.4935 100.164 58.4265 100.164C58.3595 100.164 58.3052 100.797 58.3052 101.578C58.3052 102.359 58.3595 102.992 58.4265 102.992Z" fill="#E0E0E0"/>
<path d="M56.7381 102.992C56.8051 102.992 56.8594 102.359 56.8594 101.578C56.8594 100.797 56.8051 100.164 56.7381 100.164C56.671 100.164 56.6167 100.797 56.6167 101.578C56.6167 102.359 56.671 102.992 56.7381 102.992Z" fill="#E0E0E0"/>
<path d="M55.0496 102.992C55.1166 102.992 55.1709 102.359 55.1709 101.578C55.1709 100.797 55.1166 100.164 55.0496 100.164C54.9826 100.164 54.9282 100.797 54.9282 101.578C54.9282 102.359 54.9826 102.992 55.0496 102.992Z" fill="#E0E0E0"/>
<path d="M77.7639 105.229C77.831 105.229 77.8853 103.649 77.8853 101.699C77.8853 99.7498 77.831 98.1695 77.7639 98.1695C77.6969 98.1695 77.6426 99.7498 77.6426 101.699C77.6426 103.649 77.6969 105.229 77.7639 105.229Z" fill="#263238"/>
<path d="M89.6831 105.962H76.1602V111.291H89.6831V105.962Z" fill="#EBEBEB"/>
<path d="M90.2422 105.05H47.7739V106.168H90.2422V105.05Z" fill="#55ABFF"/>
<path d="M90.047 111.054H47.7739V112.173H90.047V111.054Z" fill="#55ABFF"/>
<path d="M76.16 105.313L76.0967 111.956H47.7739V105.313H76.16Z" fill="#55ABFF"/>
<path d="M70.8045 110.278C71.6496 110.278 72.3346 109.539 72.3346 108.627C72.3346 107.715 71.6496 106.975 70.8045 106.975C69.9595 106.975 69.2744 107.715 69.2744 108.627C69.2744 109.539 69.9595 110.278 70.8045 110.278Z" fill="black"/>
<path d="M69.0371 108.627C69.0371 107.582 69.8285 106.738 70.8046 106.738C71.7807 106.738 72.5722 107.588 72.5722 108.627C72.5722 109.666 71.7807 110.516 70.8046 110.516C69.8285 110.516 69.0371 109.672 69.0371 108.627ZM69.512 108.627C69.512 109.408 70.0924 110.041 70.8046 110.041C71.5169 110.041 72.0973 109.408 72.0973 108.627C72.0973 107.846 71.5169 107.213 70.8046 107.213C70.0924 107.213 69.512 107.846 69.512 108.627Z" fill="#E0E0E0"/>
<path d="M83.3777 110.104C86.8045 110.104 89.5825 110.05 89.5825 109.983C89.5825 109.916 86.8045 109.862 83.3777 109.862C79.9508 109.862 77.1729 109.916 77.1729 109.983C77.1729 110.05 79.9508 110.104 83.3777 110.104Z" fill="black"/>
<path d="M83.3777 109.176C86.8045 109.176 89.5825 109.121 89.5825 109.054C89.5825 108.987 86.8045 108.933 83.3777 108.933C79.9508 108.933 77.1729 108.987 77.1729 109.054C77.1729 109.121 79.9508 109.176 83.3777 109.176Z" fill="black"/>
<path d="M83.3777 108.247C86.8045 108.247 89.5825 108.193 89.5825 108.126C89.5825 108.059 86.8045 108.004 83.3777 108.004C79.9508 108.004 77.1729 108.059 77.1729 108.126C77.1729 108.193 79.9508 108.247 83.3777 108.247Z" fill="black"/>
<path d="M83.3777 107.318C86.8045 107.318 89.5825 107.264 89.5825 107.197C89.5825 107.13 86.8045 107.076 83.3777 107.076C79.9508 107.076 77.1729 107.13 77.1729 107.197C77.1729 107.264 79.9508 107.318 83.3777 107.318Z" fill="black"/>
<path d="M63.6816 106.728H50.9185V110.284H63.6816V106.728Z" fill="white"/>
<path d="M61.6926 109.92C61.7597 109.92 61.814 109.286 61.814 108.505C61.814 107.725 61.7597 107.091 61.6926 107.091C61.6256 107.091 61.5713 107.725 61.5713 108.505C61.5713 109.286 61.6256 109.92 61.6926 109.92Z" fill="#E0E0E0"/>
<path d="M60.0042 109.92C60.0712 109.92 60.1255 109.286 60.1255 108.505C60.1255 107.725 60.0712 107.091 60.0042 107.091C59.9371 107.091 59.8828 107.725 59.8828 108.505C59.8828 109.286 59.9371 109.92 60.0042 109.92Z" fill="#E0E0E0"/>
<path d="M58.3157 109.92C58.3827 109.92 58.437 109.286 58.437 108.505C58.437 107.725 58.3827 107.091 58.3157 107.091C58.2487 107.091 58.1943 107.725 58.1943 108.505C58.1943 109.286 58.2487 109.92 58.3157 109.92Z" fill="#E0E0E0"/>
<path d="M56.6272 109.92C56.6942 109.92 56.7486 109.286 56.7486 108.505C56.7486 107.725 56.6942 107.091 56.6272 107.091C56.5602 107.091 56.5059 107.725 56.5059 108.505C56.5059 109.286 56.5602 109.92 56.6272 109.92Z" fill="#E0E0E0"/>
<path d="M54.9387 109.92C55.0058 109.92 55.0601 109.286 55.0601 108.505C55.0601 107.725 55.0058 107.091 54.9387 107.091C54.8717 107.091 54.8174 107.725 54.8174 108.505C54.8174 109.286 54.8717 109.92 54.9387 109.92Z" fill="#E0E0E0"/>
<path d="M53.2556 109.92C53.3227 109.92 53.377 109.286 53.377 108.505C53.377 107.725 53.3227 107.091 53.2556 107.091C53.1886 107.091 53.1343 107.725 53.1343 108.505C53.1343 109.286 53.1886 109.92 53.2556 109.92Z" fill="#E0E0E0"/>
<path d="M75.9646 112.157C76.0316 112.157 76.086 110.576 76.086 108.627C76.086 106.677 76.0316 105.097 75.9646 105.097C75.8976 105.097 75.8433 106.677 75.8433 108.627C75.8433 110.576 75.8976 112.157 75.9646 112.157Z" fill="black"/>
<path d="M265.956 41.2919C265.65 40.3 264.653 39.5613 263.618 39.5613C262.611 38.4111 260.764 38.1103 259.44 38.8754C258.648 38.1842 257.482 37.9468 256.485 38.2739C255.483 38.601 254.686 39.4769 254.454 40.5004C253.451 40.1469 252.238 40.5005 251.583 41.3446C250.929 42.1888 250.887 43.4499 251.483 44.3363C250.291 44.4945 249.315 45.6448 249.352 46.8477C249.389 48.0507 250.439 49.1376 251.636 49.222L264.99 44.0302C265.845 43.4551 266.257 42.2838 265.956 41.2919Z" fill="black"/>
<path d="M251.219 49.5016C252.623 44.257 257.825 40.97 263.165 41.9461L263.698 42.041C269.359 43.4234 271.348 49.0056 269.813 54.6301L265.091 73.8619L264.964 74.0466L255.409 80.6577L253.773 79.4494L251.678 74.2048L252.491 69.8256C252.491 69.8256 247.146 67.9631 248.085 62.4494C248.534 59.7902 249.911 54.3821 251.219 49.5016Z" fill="#FFBF9D"/>
<path d="M252.491 69.8415C252.491 69.8415 255.915 70.6698 260.036 69.0289C260.036 69.0289 257.572 72.717 252.222 71.2397L252.491 69.8415Z" fill="#FF9A6C"/>
<path d="M251.51 55.0311C251.42 55.4426 251.694 55.8595 252.122 55.965C252.549 56.0652 252.971 55.8173 253.061 55.4057C253.151 54.9942 252.876 54.5773 252.449 54.4718C252.021 54.3716 251.605 54.6195 251.51 55.0311Z" fill="black"/>
<path d="M251.795 52.6779C251.874 52.7993 252.549 52.4669 253.393 52.6252C254.237 52.7676 254.781 53.3164 254.892 53.232C254.944 53.195 254.881 52.9892 254.644 52.7465C254.412 52.5038 253.995 52.2295 253.467 52.1345C252.939 52.0395 252.459 52.1556 252.169 52.3033C251.879 52.4563 251.758 52.6252 251.795 52.6779Z" fill="black"/>
<path d="M258.812 56.461C258.722 56.8725 258.997 57.2893 259.424 57.3949C259.851 57.4951 260.273 57.2471 260.363 56.8356C260.453 56.424 260.178 56.0072 259.751 55.9017C259.324 55.8014 258.902 56.0494 258.812 56.461Z" fill="black"/>
<path d="M259.904 54.0444C259.983 54.1658 260.658 53.8334 261.503 53.9916C262.347 54.1341 262.89 54.6828 263.001 54.5984C263.054 54.5615 262.99 54.3557 262.753 54.113C262.521 53.8703 262.104 53.5959 261.576 53.501C261.049 53.406 260.569 53.5221 260.279 53.6698C259.988 53.8175 259.867 53.9864 259.904 54.0444Z" fill="black"/>
<path d="M258.854 61.1198C258.717 61.0829 258.437 61.7846 257.704 62.2331C256.981 62.6922 256.21 62.6499 256.184 62.7871C256.168 62.8504 256.353 62.956 256.691 62.9823C257.023 63.0087 257.519 62.9296 257.973 62.6499C258.426 62.365 258.706 61.9588 258.817 61.6527C258.938 61.3414 258.917 61.1357 258.854 61.1198Z" fill="black"/>
<path d="M255.973 59.8008C255.984 59.7534 255.477 59.5687 254.643 59.2996C254.432 59.2363 254.237 59.1571 254.227 59.0041C254.206 58.8406 254.337 58.6242 254.49 58.3921C254.791 57.9067 255.102 57.4002 255.43 56.8673C256.743 54.6882 257.741 52.8837 257.651 52.831C257.561 52.7782 256.427 54.5035 255.108 56.6826C254.791 57.2208 254.485 57.7326 254.195 58.2232C254.068 58.4554 253.878 58.7087 253.926 59.0516C253.952 59.2257 254.089 59.3682 254.221 59.4315C254.353 59.5001 254.475 59.5212 254.58 59.5476C255.43 59.7428 255.963 59.8483 255.973 59.8008Z" fill="black"/>
<path d="M260.337 51.6279C260.395 51.8653 261.16 51.802 262.041 51.9814C262.927 52.1397 263.624 52.4774 263.756 52.2769C263.814 52.1819 263.703 51.955 263.428 51.7071C263.154 51.4644 262.711 51.2217 262.178 51.1214C261.65 51.0212 261.154 51.0897 260.817 51.2164C260.49 51.3377 260.31 51.5118 260.337 51.6279Z" fill="black"/>
<path d="M252.412 50.3933C252.507 50.6202 253.129 50.578 253.821 50.7574C254.517 50.9104 255.055 51.2269 255.245 51.0634C255.33 50.9842 255.287 50.7679 255.082 50.5252C254.881 50.2825 254.501 50.024 254.021 49.9079C253.546 49.7971 253.087 49.8551 252.797 49.987C252.507 50.1137 252.375 50.2878 252.412 50.3933Z" fill="black"/>
<path d="M252.211 47.0746C252.211 47.0746 254.296 43.893 256.105 43.397C258.295 42.7903 258.754 45.1593 260.769 44.9746C262.785 44.79 264.874 44.2096 266.563 46.0457C268.409 48.0612 267.196 49.0162 266.885 51.4802C265.608 61.4734 266.906 64.6074 268.272 60.0382C268.42 59.537 269.913 59.3892 270.52 57.2735C271.306 54.5246 272.034 51.1478 271.776 49.0479C271.554 47.2803 270.815 45.9454 269.338 44.3573C267.006 41.8511 263.302 41.1283 260.738 40.9172C258.163 40.7114 252.771 42.7217 252.211 47.0746Z" fill="black"/>
<path d="M267.945 59.8219C268.135 58.9777 268.99 58.4448 269.823 58.677C270.831 58.9619 271.865 59.7533 271.412 61.8638C270.604 65.6047 267.016 64.0218 267.032 63.911C267.038 63.8371 267.592 61.3837 267.945 59.8219Z" fill="#FFBF9D"/>
<path d="M268.145 62.6816C268.167 62.671 268.198 62.7396 268.298 62.8135C268.393 62.8874 268.573 62.9612 268.784 62.9296C269.211 62.8715 269.681 62.3175 269.844 61.6422C269.929 61.3045 269.929 60.9668 269.865 60.6713C269.813 60.3706 269.676 60.1437 269.486 60.0646C269.296 59.9749 269.132 60.0646 269.064 60.1595C268.99 60.2545 269 60.3337 268.979 60.3337C268.969 60.3389 268.91 60.2545 268.974 60.1068C269.005 60.0382 269.069 59.9591 269.174 59.9063C269.28 59.8535 269.417 59.843 269.554 59.8905C269.839 59.9749 270.04 60.2967 270.108 60.6186C270.193 60.9457 270.203 61.3309 270.108 61.7108C269.924 62.46 269.38 63.0826 268.81 63.1195C268.531 63.1301 268.33 63.0034 268.235 62.8926C268.135 62.7713 268.13 62.6869 268.145 62.6816Z" fill="#FF9A6C"/>
<path d="M269.206 52.525C268.658 52.7677 268.077 53.0209 267.481 52.9682C266.88 52.9207 266.273 52.4564 266.278 51.8549C266.283 51.5858 266.399 51.2956 266.267 51.0582C266.104 50.7785 265.713 50.7838 265.392 50.7627C264.278 50.6783 263.297 49.7022 263.213 48.5836C262.859 48.9477 262.21 48.8105 261.835 48.4623C261.461 48.114 261.271 47.6181 261.012 47.1802C260.749 46.7422 260.348 46.3201 259.841 46.299C259.556 46.2885 259.266 46.4045 258.992 46.3307C258.506 46.1988 258.369 45.5709 258.385 45.0697C258.401 44.5684 258.448 43.9828 258.079 43.6398C257.736 43.3232 257.208 43.3707 256.739 43.3549C256.269 43.3391 255.704 43.1227 255.668 42.6584C255.646 42.4157 255.794 42.1888 255.963 42.0095C256.718 41.1969 258.068 41.0175 259.007 41.6137C259.604 40.4371 260.944 39.6826 262.258 39.7829C263.571 39.8831 264.78 40.8329 265.191 42.0833C266.12 41.5082 267.328 41.4185 268.33 41.8459C269.333 42.2785 270.103 43.2177 270.325 44.2835C271.285 44.2096 272.261 44.7531 272.704 45.6078C273.148 46.4626 273.026 47.5759 272.414 48.3145C273.021 48.8263 273.475 49.6019 273.348 50.3828C273.222 51.1637 272.319 51.8021 271.607 51.4592C271.802 52.1187 271.401 52.8996 270.752 53.1317C270.103 53.3639 269.301 53.0104 269.032 52.3772" fill="black"/>
<path d="M271.881 51.5066C271.897 51.5014 271.892 51.8338 271.517 52.1873C271.332 52.3508 271.037 52.5039 270.683 52.4986C270.335 52.4933 269.934 52.335 269.67 51.9921L269.834 51.9973C269.586 52.2875 269.285 52.5724 268.911 52.7993C268.673 52.9418 268.415 53.0579 268.146 53.1001C267.882 53.1528 267.597 53.1106 267.375 53.0315C266.906 52.889 266.542 52.5566 266.404 52.2084C266.262 51.8654 266.251 51.57 266.246 51.3695C266.241 51.169 266.257 51.0634 266.273 51.0582C266.288 51.0582 266.304 51.169 266.331 51.3589C266.362 51.5489 266.399 51.8338 266.547 52.1398C266.805 52.7466 267.913 53.232 268.8 52.6094C269.143 52.3983 269.438 52.1292 269.676 51.8602L269.76 51.7599L269.839 51.8654C270.056 52.1556 270.393 52.3034 270.694 52.3192C271 52.3403 271.259 52.2189 271.438 52.087C271.797 51.7968 271.85 51.4908 271.881 51.5066Z" fill="#455A64"/>
<path d="M266.346 41.6138C266.346 41.6296 266.241 41.6243 266.062 41.6613C265.882 41.7035 265.618 41.7984 265.386 42.0517L265.328 42.115L265.286 42.0359C265.022 41.4977 264.542 40.7854 263.735 40.2314C263.334 39.9571 262.854 39.7302 262.315 39.6352C261.783 39.535 261.192 39.5877 260.638 39.7988C260.21 39.9623 259.825 40.2156 259.524 40.5269C259.229 40.8382 259.013 41.2075 258.902 41.5874L258.87 41.7035L258.759 41.6507C258.221 41.3922 257.625 41.3975 257.161 41.5557C256.691 41.714 256.348 42.02 256.137 42.3155C255.715 42.9223 255.736 43.3971 255.699 43.3866C255.688 43.3866 255.678 43.2758 255.71 43.07C255.741 42.8695 255.826 42.5688 256.037 42.2469C256.248 41.9304 256.596 41.5821 257.103 41.3975C257.604 41.2128 258.247 41.1917 258.844 41.4713L258.701 41.5346C258.812 41.1178 259.044 40.7168 259.361 40.3791C259.683 40.0467 260.094 39.7724 260.548 39.5983C261.134 39.3714 261.772 39.3186 262.342 39.4294C262.912 39.5402 263.418 39.7829 263.835 40.0784C264.669 40.6746 265.138 41.4291 265.381 41.9937L265.286 41.9778C265.555 41.714 265.845 41.6296 266.035 41.6085C266.246 41.5768 266.346 41.6032 266.346 41.6138Z" fill="#455A64"/>
<path d="M206.693 112.837C206.693 112.837 207.079 108.78 208.915 107.624C210.751 106.464 215.647 105.461 215.647 105.461L217.605 111.265L214.323 115.402L206.693 112.837Z" fill="#FFBF9D"/>
<path d="M195.846 172.079L196.284 184.573C196.284 184.573 183.795 188.952 183.647 191.268L207.838 191.553L207.96 172.058L195.846 172.079Z" fill="#87C4FF"/>
<path d="M203.739 183.576C204.214 183.708 204.536 184.235 204.43 184.715C204.319 185.195 203.781 185.528 203.306 185.406C202.831 185.285 202.42 184.657 202.583 184.198C202.747 183.734 203.401 183.375 203.834 183.607" fill="#E0E0E0"/>
<path d="M207.96 191.553L207.97 190.002L184.486 190.197C184.486 190.197 183.716 190.672 183.647 191.4L207.96 191.553Z" fill="#455A64"/>
<path d="M196.178 184.652C196.183 184.773 196.779 184.826 197.365 185.211C197.961 185.581 198.262 186.098 198.373 186.05C198.484 186.029 198.304 185.312 197.587 184.863C196.874 184.404 196.152 184.547 196.178 184.652Z" fill="white"/>
<path d="M193.614 185.712C193.587 185.829 194.104 186.029 194.505 186.536C194.922 187.026 195.028 187.575 195.144 187.57C195.255 187.591 195.339 186.889 194.827 186.272C194.321 185.649 193.619 185.596 193.614 185.712Z" fill="white"/>
<path d="M192.157 188.778C192.268 188.804 192.432 188.208 192.126 187.554C191.825 186.9 191.261 186.641 191.213 186.741C191.144 186.842 191.509 187.19 191.751 187.733C192.004 188.261 192.036 188.762 192.157 188.778Z" fill="white"/>
<path d="M196.394 181.776C196.442 181.887 196.99 181.724 197.666 181.766C198.341 181.798 198.863 182.024 198.927 181.924C198.995 181.84 198.484 181.397 197.687 181.354C196.901 181.302 196.336 181.682 196.394 181.776Z" fill="#455A64"/>
<path d="M195.967 179.08C195.967 179.128 196.436 179.202 197.191 179.075C197.566 179.012 198.009 178.89 198.473 178.685C198.705 178.584 198.943 178.458 199.175 178.31C199.286 178.236 199.423 178.168 199.544 178.025C199.676 177.904 199.75 177.587 199.602 177.392C199.476 177.202 199.254 177.123 199.08 177.118C198.9 177.112 198.753 177.149 198.621 177.181C198.346 177.244 198.093 177.334 197.861 177.439C197.397 177.651 197.017 177.92 196.732 178.178C196.162 178.7 195.972 179.149 196.009 179.17C196.062 179.207 196.341 178.838 196.917 178.405C197.207 178.189 197.571 177.967 198.009 177.793C198.225 177.709 198.462 177.629 198.71 177.577C198.969 177.508 199.191 177.508 199.254 177.624C199.28 177.666 199.28 177.687 199.228 177.761C199.17 177.83 199.069 177.898 198.958 177.972C198.742 178.115 198.526 178.236 198.309 178.342C197.882 178.553 197.476 178.695 197.128 178.795C196.426 178.985 195.962 179.017 195.967 179.08Z" fill="#455A64"/>
<path d="M185.594 147.866L179.7 158.894C179.7 158.894 166.7 156.414 165.412 158.35L186.195 170.733L196.077 153.929L185.594 147.866Z" fill="#87C4FF"/>
<path d="M186.549 161.711C186.892 162.059 186.907 162.682 186.575 163.041C186.243 163.399 185.604 163.42 185.256 163.077C184.908 162.735 184.866 161.985 185.24 161.669C185.615 161.352 186.359 161.368 186.617 161.785" fill="#E0E0E0"/>
<path d="M186.195 170.728L186.982 169.388L166.568 157.775C166.568 157.775 165.666 157.796 165.238 158.398L186.195 170.728Z" fill="#455A64"/>
<path d="M179.468 158.851C179.41 158.957 179.901 159.305 180.217 159.928C180.55 160.545 180.55 161.146 180.671 161.157C180.777 161.194 180.982 160.487 180.587 159.732C180.196 158.983 179.505 158.74 179.468 158.851Z" fill="#F5F5F5"/>
<path d="M176.725 158.477C176.64 158.561 176.988 158.999 177.083 159.637C177.199 160.276 177.015 160.798 177.12 160.851C177.21 160.925 177.632 160.36 177.495 159.569C177.363 158.777 176.783 158.382 176.725 158.477Z" fill="#F5F5F5"/>
<path d="M173.923 160.397C174.002 160.471 174.445 160.044 174.508 159.321C174.577 158.603 174.218 158.097 174.129 158.155C174.023 158.208 174.16 158.693 174.097 159.279C174.049 159.875 173.828 160.329 173.923 160.397Z" fill="#F5F5F5"/>
<path d="M181.104 156.466C181.093 156.588 181.647 156.72 182.206 157.094C182.776 157.464 183.114 157.923 183.219 157.865C183.325 157.822 183.103 157.184 182.433 156.751C181.774 156.308 181.098 156.356 181.104 156.466Z" fill="#455A64"/>
<path d="M182.08 153.923C182.054 153.966 182.423 154.266 183.141 154.535C183.499 154.667 183.943 154.783 184.444 154.841C184.697 154.868 184.961 154.878 185.241 154.873C185.372 154.868 185.525 154.873 185.705 154.81C185.879 154.768 186.106 154.535 186.069 154.287C186.053 154.06 185.905 153.881 185.752 153.786C185.599 153.691 185.457 153.649 185.325 153.612C185.056 153.533 184.792 153.48 184.534 153.454C184.022 153.401 183.563 153.443 183.188 153.528C182.434 153.696 182.043 153.987 182.064 154.024C182.091 154.087 182.518 153.902 183.236 153.818C183.594 153.776 184.022 153.77 184.486 153.834C184.718 153.871 184.961 153.923 185.204 153.997C185.462 154.066 185.652 154.177 185.652 154.308C185.652 154.356 185.647 154.377 185.562 154.414C185.478 154.446 185.351 154.451 185.219 154.456C184.961 154.472 184.713 154.467 184.476 154.451C184.001 154.419 183.573 154.34 183.225 154.25C182.523 154.071 182.112 153.865 182.08 153.923Z" fill="#263238"/>
<path d="M261.608 129.394C261.587 129.136 261.577 128.988 261.577 128.988L261.608 129.394Z" fill="#263238"/>
<path d="M261.988 129.394L234.177 118.984C234.177 118.984 217.747 111.313 211.769 109.666C205.374 107.904 199.607 112.716 196.041 120.171C193.624 125.221 180.138 156.72 180.138 156.72L190.828 163.647L212.191 125.564L243.437 145.845C243.437 145.845 249.594 145.724 255.551 145.724C260.938 145.724 262.178 131.853 261.988 129.394Z" fill="black"/>
<path d="M193.999 182.526L197.914 139.345C197.914 139.345 198.605 130.354 203.792 128.561C208.978 126.767 215.046 127.489 215.046 127.489L244.118 145.84L214.291 146.352C214.291 146.352 212.772 152.625 212.339 155.348C211.822 158.593 207.965 183.09 207.965 183.09L193.999 182.526Z" fill="#222222"/>
<path d="M243.442 144.241C243.442 144.241 243.4 144.21 243.31 144.152C243.215 144.094 243.078 144.009 242.909 143.904C242.545 143.687 242.018 143.371 241.337 142.959C239.955 142.136 237.95 140.944 235.428 139.445C232.9 137.947 229.851 136.142 226.4 134.101C224.675 133.077 222.844 132.001 220.929 130.866C219.968 130.302 218.992 129.721 217.99 129.13C216.977 128.561 215.948 127.975 214.898 127.384L214.877 127.373H214.85C213.574 127.331 212.202 127.289 210.804 127.247H210.798H210.793C209.078 127.331 207.311 127.5 205.554 127.922C205.116 128.033 204.678 128.149 204.245 128.323C203.839 128.539 203.422 128.74 203.032 128.988L202.467 129.394L202.188 129.6L201.934 129.837L201.422 130.318C201.259 130.486 201.116 130.671 200.963 130.845C199.887 132.127 199.138 133.631 198.642 135.172C198.13 136.712 197.845 138.295 197.75 139.862C197.471 142.97 197.201 145.967 196.943 148.826C196.431 154.541 195.977 159.68 195.587 164.006C195.207 168.322 194.906 171.815 194.69 174.242C194.59 175.445 194.511 176.379 194.458 177.028C194.437 177.339 194.416 177.582 194.405 177.751C194.395 177.914 194.395 177.999 194.395 177.999C194.395 177.999 194.41 177.914 194.426 177.756C194.442 177.587 194.468 177.344 194.5 177.033C194.563 176.389 194.653 175.456 194.769 174.253C194.996 171.831 195.323 168.338 195.729 164.022C196.125 159.701 196.6 154.556 197.128 148.848C197.386 145.993 197.661 142.991 197.945 139.883C198.04 138.332 198.325 136.765 198.827 135.246C199.317 133.726 200.061 132.243 201.111 130.988C201.264 130.813 201.401 130.634 201.56 130.471L202.061 130.001L202.309 129.769L202.583 129.568L203.132 129.173C203.512 128.935 203.923 128.735 204.314 128.529C204.725 128.365 205.158 128.244 205.591 128.138C207.327 127.722 209.084 127.548 210.788 127.463H210.782C212.181 127.505 213.552 127.548 214.829 127.584L214.787 127.574C215.837 128.165 216.866 128.745 217.879 129.315C218.881 129.906 219.858 130.481 220.818 131.046C222.733 132.175 224.564 133.246 226.295 134.264C229.75 136.29 232.805 138.084 235.343 139.572C237.876 141.049 239.891 142.226 241.279 143.038C241.965 143.434 242.498 143.745 242.867 143.957C243.047 144.057 243.178 144.136 243.279 144.189C243.395 144.22 243.442 144.241 243.442 144.241Z" fill="#455A64"/>
<path d="M237.591 107.815L229.614 109.434L222.649 111.782L234.404 119.032L236.409 114.457L237.591 107.815Z" fill="#FF725E"/>
<path d="M266.521 73.2131C266.521 73.2131 272.9 81.9294 270.589 93.3207C268.278 104.712 264.4 126.983 264.283 129.452C264.188 131.484 263.08 131.283 263.08 131.283L234.51 119.348L240.546 95.0566L249.584 78.5684L250.977 74.3316L265.914 70.4272L266.521 73.2131Z" fill="#87C4FF"/>
<path d="M235.618 115.692C235.618 115.692 236.04 120.741 236.087 121.369C236.135 121.997 235.259 124.049 235.254 125.194C235.243 126.339 235.602 127.447 235.116 127.806C234.631 128.165 233.444 127.88 233.191 127.046C232.937 126.213 233.127 123.691 233.127 123.691L232.431 125.944L232.199 130.17C232.199 130.17 232.083 130.829 231.323 130.761C230.563 130.692 230.136 130.054 230.136 130.054C230.136 130.054 229.228 130.233 228.79 129.231C228.79 129.231 227.408 129.589 227.044 127.284C227.044 127.284 226.405 127.468 226.031 126.846C225.656 126.223 224.923 124.688 224.923 124.688C224.923 124.688 225.092 119.111 225.487 117.903C225.883 116.694 229.376 112.558 229.376 112.558C229.376 112.558 233.027 112.853 234.478 112.742L235.618 115.692Z" fill="#FFBF9D"/>
<path d="M230.684 120.377C230.674 120.372 230.616 120.493 230.521 120.71C230.426 120.931 230.305 121.253 230.178 121.665C229.919 122.482 229.666 123.648 229.592 124.957C229.524 126.271 229.656 127.458 229.83 128.297C229.914 128.719 229.998 129.051 230.072 129.283C230.141 129.51 230.188 129.637 230.204 129.632C230.236 129.621 230.104 129.109 229.967 128.27C229.835 127.431 229.724 126.26 229.793 124.967C229.861 123.675 230.093 122.519 230.315 121.701C230.531 120.884 230.716 120.393 230.684 120.377Z" fill="#FF9A6C"/>
<path d="M228.051 120.129C228.035 120.129 228.004 120.251 227.962 120.477C227.914 120.704 227.856 121.031 227.793 121.438C227.666 122.25 227.513 123.385 227.55 124.646C227.587 125.912 227.856 127.041 228.188 127.801C228.352 128.181 228.51 128.476 228.637 128.671C228.764 128.867 228.843 128.967 228.853 128.956C228.885 128.935 228.6 128.513 228.315 127.748C228.025 126.988 227.782 125.88 227.745 124.635C227.708 123.39 227.84 122.266 227.93 121.454C228.025 120.636 228.083 120.134 228.051 120.129Z" fill="#FF9A6C"/>
<path d="M226.959 119.929C226.933 119.929 226.885 120.33 226.78 120.968C226.685 121.612 226.511 122.498 226.437 123.501C226.363 124.503 226.479 125.426 226.695 126.054C226.801 126.371 226.917 126.608 227.012 126.772C227.107 126.93 227.17 127.009 227.181 127.004C227.212 126.988 227.001 126.64 226.827 126.017C226.653 125.4 226.563 124.503 226.632 123.517C226.706 122.53 226.859 121.643 226.917 120.989C226.986 120.335 226.986 119.929 226.959 119.929Z" fill="#FF9A6C"/>
<path d="M222.2 112.874C222.2 112.874 226.944 114.215 229.93 115.006C232.911 115.797 234.541 116.03 236.129 115.344C237.712 114.658 243.901 111.534 245.336 110.431C247.347 108.896 254.433 103.789 255.709 102.433C258.131 99.8527 261.598 95.7794 261.598 95.7794L233.76 111.007L222.881 111.619L222.2 112.874Z" fill="#B3D9FF"/>
<path d="M266.563 84.8735C266.473 84.3986 266.114 83.5439 265.924 83.1323C263.26 77.4393 253.921 80.7211 249.99 84.2034C246.476 87.3216 232.874 102.433 232.874 102.433L215.304 105.461L217.256 111.993C217.256 111.993 220.786 112.98 225.366 113.449C231.344 114.062 232.288 114.22 235.586 113.423C238.636 112.684 248.84 105.646 254.512 101.546C260.147 97.4731 267.818 91.5057 266.563 84.8735Z" fill="#87C4FF"/>
<path d="M266.557 84.8735C266.557 84.8735 266.578 84.979 266.605 85.1901C266.631 85.4117 266.668 85.7177 266.716 86.124C266.695 86.9418 266.663 88.1975 266.061 89.6696C265.486 91.1417 264.447 92.7984 262.948 94.4657C261.455 96.1382 259.551 97.853 257.313 99.5783C255.082 101.309 252.549 103.087 249.826 104.997C247.093 106.891 244.149 108.896 240.941 110.854C240.139 111.339 239.322 111.824 238.472 112.283C237.623 112.737 236.757 113.196 235.792 113.497C234.837 113.761 233.855 113.956 232.842 114.056C231.829 114.151 230.806 114.098 229.782 114.025C228.759 113.945 227.73 113.84 226.69 113.734C225.656 113.629 224.606 113.529 223.551 113.381C221.446 113.091 219.325 112.695 217.204 112.136L217.13 112.115L217.109 112.041C216.787 110.964 216.444 109.814 216.096 108.653C215.779 107.598 215.468 106.548 215.156 105.509L215.114 105.361L215.267 105.335C221.43 104.274 227.35 103.261 232.842 102.317L232.768 102.359C237.164 97.4942 241.284 93.0042 245.036 89.0523C245.975 88.0656 246.888 87.1106 247.79 86.2031C248.697 85.3009 249.557 84.4039 250.502 83.6653C252.407 82.209 254.443 81.2646 256.348 80.6684C258.258 80.0722 260.083 79.8611 261.645 80.0827C262.426 80.1935 263.128 80.4204 263.719 80.737C264.31 81.0535 264.779 81.4598 265.138 81.8713C265.85 82.7103 266.114 83.5334 266.32 84.0557C266.415 84.3195 266.478 84.5306 266.515 84.6677C266.552 84.7996 266.557 84.8735 266.557 84.8735C266.552 84.8735 266.536 84.8049 266.494 84.6677C266.452 84.5306 266.383 84.3248 266.283 84.0663C266.067 83.5545 265.787 82.7419 265.075 81.9241C264.378 81.1063 263.17 80.3887 261.629 80.1988C260.094 79.993 258.284 80.2093 256.395 80.8108C254.512 81.4123 252.496 82.3568 250.618 83.8077C249.695 84.5411 248.835 85.4381 247.938 86.3403C247.041 87.2531 246.128 88.2081 245.194 89.2C241.458 93.1624 237.354 97.6631 232.964 102.528L232.932 102.559L232.89 102.565C227.397 103.514 221.477 104.533 215.32 105.598L215.426 105.424C215.737 106.464 216.048 107.514 216.365 108.569C216.713 109.73 217.056 110.885 217.378 111.956L217.283 111.861C219.383 112.415 221.498 112.811 223.593 113.101C224.638 113.249 225.683 113.349 226.722 113.455C227.756 113.56 228.785 113.671 229.803 113.75C230.822 113.829 231.829 113.877 232.821 113.787C233.808 113.697 234.789 113.497 235.723 113.244C236.641 112.959 237.507 112.505 238.351 112.057C239.195 111.608 240.013 111.123 240.815 110.637C244.017 108.69 246.961 106.696 249.7 104.812C252.428 102.913 254.966 101.14 257.197 99.4253C259.434 97.7158 261.339 96.0169 262.838 94.3654C264.341 92.7192 265.386 91.0836 265.966 89.6327C266.573 88.1817 266.626 86.9418 266.663 86.1292C266.626 85.7283 266.6 85.417 266.578 85.2006C266.563 84.979 266.557 84.8735 266.557 84.8735Z" fill="#263238"/>
<path d="M266.241 73.0178C266.241 73.0125 266.177 73.0336 266.061 73.0811C265.924 73.1392 265.761 73.2078 265.56 73.2922C265.096 73.4874 264.478 73.7512 263.724 74.0731C262.167 74.7168 260.004 75.5768 257.572 76.3999C255.604 77.0699 253.762 77.6134 252.285 78.0197L252.375 78.0566C251.779 77.0805 251.462 76.1835 251.288 75.5557C251.198 75.2391 251.14 74.9911 251.103 74.8223C251.066 74.6534 251.045 74.5637 251.035 74.5637C251.029 74.5637 251.035 74.6587 251.056 74.8328C251.082 75.007 251.124 75.2602 251.198 75.5821C251.351 76.2205 251.647 77.1385 252.238 78.141L252.269 78.1938L252.327 78.178C253.81 77.7928 255.662 77.2599 257.635 76.5898C260.078 75.7667 262.236 74.8856 263.782 74.205C264.552 73.862 265.17 73.5718 265.597 73.366C265.792 73.2711 265.95 73.1867 266.082 73.1233C266.188 73.0548 266.241 73.0231 266.241 73.0178Z" fill="#263238"/>
<path d="M263.055 146.115H265.614C266.959 146.115 268.099 145.107 268.257 143.772C268.763 139.593 269.766 127.964 269.776 127.848L267.951 127.69C267.94 127.806 266.938 139.403 266.437 143.55C266.389 143.967 266.03 144.284 265.608 144.284H263.049V146.115H263.055Z" fill="#87C4FF"/>
<path d="M263.054 146.115C263.054 146.115 263.06 146.067 263.065 145.988C263.065 145.898 263.07 145.777 263.076 145.634C263.081 145.313 263.091 144.859 263.102 144.284L263.06 144.326C263.471 144.331 263.951 144.336 264.484 144.342C264.753 144.342 265.038 144.347 265.334 144.347C265.481 144.342 265.634 144.363 265.803 144.331C265.967 144.3 266.13 144.215 266.252 144.088C266.378 143.967 266.468 143.798 266.505 143.619C266.531 143.44 266.542 143.276 266.563 143.097C266.6 142.743 266.637 142.379 266.674 142.004C266.748 141.25 266.827 140.448 266.911 139.604C267.238 136.211 267.639 132.127 268.067 127.706L267.951 127.806C268.378 127.843 268.842 127.885 269.307 127.922C269.47 127.938 269.629 127.949 269.776 127.964L269.676 127.848C269.101 134.027 268.579 139.604 268.204 143.651C268.135 144.653 267.502 145.429 266.806 145.782C266.099 146.167 265.376 146.062 264.827 146.088C264.279 146.099 263.841 146.104 263.529 146.109C263.387 146.115 263.276 146.115 263.186 146.12C263.097 146.109 263.054 146.115 263.054 146.115C263.054 146.115 263.086 146.12 263.16 146.125C263.25 146.125 263.355 146.13 263.492 146.136C263.804 146.141 264.242 146.152 264.796 146.157C265.08 146.157 265.397 146.173 265.751 146.162C266.099 146.146 266.484 146.067 266.848 145.877C267.581 145.524 268.262 144.706 268.346 143.656C268.742 139.609 269.286 134.037 269.887 127.859L269.898 127.748L269.787 127.738C269.639 127.727 269.476 127.711 269.317 127.695C268.853 127.653 268.394 127.616 267.961 127.579L267.856 127.569L267.845 127.679C267.428 132.101 267.049 136.185 266.732 139.577C266.653 140.422 266.579 141.229 266.51 141.983C266.479 142.358 266.442 142.727 266.41 143.075C266.394 143.25 266.384 143.429 266.363 143.587C266.336 143.74 266.262 143.883 266.152 143.988C266.046 144.094 265.909 144.168 265.772 144.199C265.634 144.231 265.476 144.215 265.328 144.22C265.033 144.22 264.748 144.226 264.479 144.226C263.946 144.231 263.466 144.236 263.054 144.236H263.012V144.278C263.023 144.864 263.033 145.323 263.039 145.65C263.044 145.793 263.044 145.909 263.049 145.999C263.049 146.083 263.049 146.12 263.054 146.115Z" fill="#87C4FF"/>
<path d="M222.258 148.352H263.144C264.669 148.352 265.903 147.328 265.903 146.067C265.903 144.806 264.669 143.782 263.144 143.782H222.258C220.734 143.782 219.499 144.806 219.499 146.067C219.499 147.333 220.734 148.352 222.258 148.352Z" fill="#868686"/>
<path d="M271.892 129.22L277.469 85.4486C277.664 83.9396 276.593 82.5572 275.084 82.362C273.575 82.1721 272.193 83.2379 271.997 84.7469L266.42 128.518C266.23 130.027 267.296 131.41 268.805 131.605C270.319 131.795 271.697 130.729 271.892 129.22Z" fill="#868686"/>
<path d="M222.528 146.647L216.434 191.369H218.861L227.957 148.352L222.528 146.647Z" fill="#868686"/>
<path d="M262.669 146.647L268.594 191.369H266.172L257.24 148.352L262.669 146.647Z" fill="#868686"/>
<path d="M222.258 148.352C222.258 148.41 231.539 148.462 242.989 148.462C254.438 148.462 263.719 148.415 263.719 148.352C263.719 148.294 254.438 148.241 242.989 148.241C231.539 148.246 222.258 148.294 222.258 148.352Z" fill="#363636"/>
<defs>
<linearGradient id="paint0_linear_4193_240" x1="152.923" y1="0" x2="152.923" y2="207.766" gradientUnits="userSpaceOnUse">
<stop stop-color="#55ABFF"/>
<stop offset="1" stop-color="white"/>
</linearGradient>
</defs>
</svg>
