<svg width="190" height="190" viewBox="0 0 190 190" fill="none" xmlns="http://www.w3.org/2000/svg">
<g filter="url(#filter0_d_66_22472)">
<path d="M94.8251 33.667C62.6251 33.667 36.4918 59.8003 36.4918 92.0003C36.4918 124.2 62.6251 150.334 94.8251 150.334C127.025 150.334 153.158 124.2 153.158 92.0003C153.158 59.8003 127.083 33.667 94.8251 33.667ZM112.325 105.009L95.4085 114.75C93.3085 115.975 90.9751 116.559 88.7001 116.559C86.3668 116.559 84.0918 115.975 81.9918 114.75C77.7918 112.3 75.2835 107.984 75.2835 103.084V83.542C75.2835 78.7003 77.7918 74.3253 81.9918 71.8753C86.1918 69.4253 91.2085 69.4253 95.4668 71.8753L112.383 81.617C116.583 84.067 119.092 88.3837 119.092 93.2837C119.092 98.1837 116.583 102.559 112.325 105.009Z" fill="#55ABFF"/>
<rect width="67" height="67" transform="translate(62 58)" fill="#55ABFF"/>
<path d="M101.083 111.041H112.25V71.958H101.083M78.75 111.041H89.9167V71.958H78.75V111.041Z" fill="black"/>
</g>
<defs>
<filter id="filter0_d_66_22472" x="0.491791" y="0.666992" width="188.667" height="188.667" filterUnits="userSpaceOnUse" color-interpolation-filters="sRGB">
<feFlood flood-opacity="0" result="BackgroundImageFix"/>
<feColorMatrix in="SourceAlpha" type="matrix" values="0 0 0 0 0 0 0 0 0 0 0 0 0 0 0 0 0 0 127 0" result="hardAlpha"/>
<feOffset dy="3"/>
<feGaussianBlur stdDeviation="18"/>
<feComposite in2="hardAlpha" operator="out"/>
<feColorMatrix type="matrix" values="0 0 0 0 0.6 0 0 0 0 0.338357 0 0 0 0 0.045 0 0 0 0.14 0"/>
<feBlend mode="normal" in2="BackgroundImageFix" result="effect1_dropShadow_66_22472"/>
<feBlend mode="normal" in="SourceGraphic" in2="effect1_dropShadow_66_22472" result="shape"/>
</filter>
</defs>
</svg>
