<svg width="190" height="190" viewBox="0 0 190 190" fill="none" xmlns="http://www.w3.org/2000/svg">
<g filter="url(#filter0_d_4151_358)">
<path d="M94.825 33.6665C62.625 33.6665 36.4917 59.7998 36.4917 91.9998C36.4917 124.2 62.625 150.333 94.825 150.333C127.025 150.333 153.158 124.2 153.158 91.9998C153.158 59.7998 127.083 33.6665 94.825 33.6665ZM112.325 105.008L95.4084 114.75C93.3084 115.975 90.975 116.558 88.7 116.558C86.3667 116.558 84.0917 115.975 81.9917 114.75C77.7917 112.3 75.2834 107.983 75.2834 103.083V83.5415C75.2834 78.6998 77.7917 74.3248 81.9917 71.8748C86.1917 69.4248 91.2084 69.4248 95.4667 71.8748L112.383 81.6165C116.583 84.0665 119.092 88.3832 119.092 93.2832C119.092 98.1832 116.583 102.558 112.325 105.008Z" fill="#55ABFF"/>
</g>
<path d="M82.75 93.7499V87.5199C82.75 79.7849 88.2275 76.6174 94.93 80.4849L100.337 83.5999L105.745 86.7149C112.447 90.5824 112.447 96.9174 105.745 100.785L100.337 103.9L94.93 107.015C88.2275 110.882 82.75 107.715 82.75 99.9799V93.7499Z" fill="white" stroke="white" stroke-width="1.5" stroke-miterlimit="10" stroke-linecap="round" stroke-linejoin="round"/>
<defs>
<filter id="filter0_d_4151_358" x="0.491699" y="0.666504" width="188.667" height="188.667" filterUnits="userSpaceOnUse" color-interpolation-filters="sRGB">
<feFlood flood-opacity="0" result="BackgroundImageFix"/>
<feColorMatrix in="SourceAlpha" type="matrix" values="0 0 0 0 0 0 0 0 0 0 0 0 0 0 0 0 0 0 127 0" result="hardAlpha"/>
<feOffset dy="3"/>
<feGaussianBlur stdDeviation="18"/>
<feComposite in2="hardAlpha" operator="out"/>
<feColorMatrix type="matrix" values="0 0 0 0 0.6 0 0 0 0 0.338357 0 0 0 0 0.045 0 0 0 0.14 0"/>
<feBlend mode="normal" in2="BackgroundImageFix" result="effect1_dropShadow_4151_358"/>
<feBlend mode="normal" in="SourceGraphic" in2="effect1_dropShadow_4151_358" result="shape"/>
</filter>
</defs>
</svg>
