<svg width="20" height="14" viewBox="0 0 20 14" fill="none" xmlns="http://www.w3.org/2000/svg">
<g clip-path="url(#clip0_4151_401)">
<path d="M12.8707 6.58811C11.0991 5.64139 9.40286 4.77103 7.66895 3.8623V9.2985C9.49356 8.30661 11.4167 7.39825 12.8782 6.58811H12.8707Z" fill="black"/>
<path d="M12.8707 6.58811C11.0991 5.64139 7.66895 3.8623 7.66895 3.8623L12.2423 6.93618C12.2423 6.93618 11.4092 7.39825 12.8707 6.58811Z" fill="white"/>
<path d="M8.00208 13.554C4.32239 13.4862 3.06559 13.4253 2.29309 13.2661C1.77044 13.1604 1.31626 12.9256 0.983243 12.5851C0.725861 12.3273 0.521175 11.9341 0.362373 11.3885C0.226155 10.9339 0.173101 10.5558 0.0974641 9.63198C-0.0183216 7.54712 -0.0459237 5.8426 0.0974641 3.93805C0.215759 2.8863 0.273114 1.63775 1.05888 0.909339C1.4299 0.568434 1.86149 0.349051 2.34614 0.258358C3.10323 0.114612 6.32874 0.000976562 9.66789 0.000976562C12.9995 0.000976562 16.2322 0.114612 16.99 0.258358C17.5954 0.371993 18.1633 0.712538 18.4966 1.15166C19.2136 2.27941 19.2261 3.68174 19.2989 4.77866C19.329 5.30131 19.329 8.26908 19.2989 8.79173C19.1856 10.5253 19.0946 11.1386 18.8372 11.7746C18.678 12.176 18.5422 12.3879 18.307 12.6227C17.9382 12.984 17.468 13.2244 16.9592 13.3117C13.7749 13.5511 11.0709 13.6031 8.00208 13.554ZM12.8783 6.58821C11.1068 5.6415 9.41051 4.7636 7.67659 3.85488V9.29143C9.5012 8.29955 11.4247 7.39083 12.8859 6.58069L12.8783 6.58821Z" fill="white"/>
</g>
<defs>
<clipPath id="clip0_4151_401">
<rect width="19.3215" height="13.5714" fill="white"/>
</clipPath>
</defs>
</svg>
